<svg xmlns="http://www.w3.org/2000/svg" viewBox="0 0 900 300" role="img" aria-label="Mean score std by decision date">
<rect width="900" height="300" fill="#0f1117"/>
<text x="56" y="22" fill="#e6eaf2" font-size="14" font-family="ui-sans-serif,system-ui,sans-serif" font-weight="600">Mean score std by decision date</text>
<line x1="56" y1="252.0" x2="740" y2="252.0" stroke="#2a3140" stroke-dasharray="4 4"/>
<text x="48" y="252.0" fill="#8b95a8" font-size="11" text-anchor="end" dominant-baseline="middle" font-family="ui-sans-serif,system-ui,sans-serif">0.000</text>
<line x1="56" y1="198.0" x2="740" y2="198.0" stroke="#2a3140" stroke-dasharray="4 4"/>
<text x="48" y="198.0" fill="#8b95a8" font-size="11" text-anchor="end" dominant-baseline="middle" font-family="ui-sans-serif,system-ui,sans-serif">0.024</text>
<line x1="56" y1="144.0" x2="740" y2="144.0" stroke="#2a3140" stroke-dasharray="4 4"/>
<text x="48" y="144.0" fill="#8b95a8" font-size="11" text-anchor="end" dominant-baseline="middle" font-family="ui-sans-serif,system-ui,sans-serif">0.048</text>
<line x1="56" y1="90.0" x2="740" y2="90.0" stroke="#2a3140" stroke-dasharray="4 4"/>
<text x="48" y="90.0" fill="#8b95a8" font-size="11" text-anchor="end" dominant-baseline="middle" font-family="ui-sans-serif,system-ui,sans-serif">0.072</text>
<line x1="56" y1="36.0" x2="740" y2="36.0" stroke="#2a3140" stroke-dasharray="4 4"/>
<text x="48" y="36.0" fill="#8b95a8" font-size="11" text-anchor="end" dominant-baseline="middle" font-family="ui-sans-serif,system-ui,sans-serif">0.096</text>
<polyline points="56.0,91.0 101.6,131.4 147.2,88.3 192.8,119.4 238.4,153.0 284.0,163.9 329.6,98.0 375.2,144.7 420.8,160.9 466.4,165.7 512.0,114.5 557.6,151.7 603.2,191.8 648.8,179.0 694.4,170.4 740.0,80.0" fill="none" stroke="#ffb000" stroke-width="2"/>
<text x="746" y="80.0" fill="#ffb000" font-size="10" dominant-baseline="middle" font-family="ui-sans-serif,system-ui,sans-serif">ex-ante agent</text>
<polyline points="56.0,160.9 101.6,107.9 147.2,118.5 192.8,148.5 238.4,138.1 284.0,87.4 329.6,151.5 375.2,156.2 420.8,176.9 466.4,179.9 512.0,184.8 557.6,92.6 603.2,147.8 648.8,176.5 694.4,150.8 740.0,130.0" fill="none" stroke="#38bdf8" stroke-width="2"/>
<text x="746" y="130.0" fill="#38bdf8" font-size="10" dominant-baseline="middle" font-family="ui-sans-serif,system-ui,sans-serif">iterative agent (remove verifier)</text>
<polyline points="56.0,74.6 101.6,89.7 147.2,110.6 192.8,144.2 238.4,127.1 284.0,174.4 329.6,171.7 375.2,181.9 420.8,177.8 466.4,168.1 512.0,195.6 557.6,122.1 603.2,158.7 648.8,152.1 694.4,174.0 740.0,55.6" fill="none" stroke="#4ade80" stroke-width="2"/>
<text x="746" y="55.6" fill="#4ade80" font-size="10" dominant-baseline="middle" font-family="ui-sans-serif,system-ui,sans-serif">iterative agent (with memory and performance reflection)</text>
<text x="56.0" y="288" fill="#8b95a8" font-size="10" text-anchor="middle" font-family="ui-sans-serif,system-ui,sans-serif">2022-07</text>
<text x="147.2" y="288" fill="#8b95a8" font-size="10" text-anchor="middle" font-family="ui-sans-serif,system-ui,sans-serif">2023-01</text>
<text x="238.4" y="288" fill="#8b95a8" font-size="10" text-anchor="middle" font-family="ui-sans-serif,system-ui,sans-serif">2023-07</text>
<text x="329.6" y="288" fill="#8b95a8" font-size="10" text-anchor="middle" font-family="ui-sans-serif,system-ui,sans-serif">2024-01</text>
<text x="420.8" y="288" fill="#8b95a8" font-size="10" text-anchor="middle" font-family="ui-sans-serif,system-ui,sans-serif">2024-07</text>
<text x="512.0" y="288" fill="#8b95a8" font-size="10" text-anchor="middle" font-family="ui-sans-serif,system-ui,sans-serif">2025-01</text>
<text x="603.2" y="288" fill="#8b95a8" font-size="10" text-anchor="middle" font-family="ui-sans-serif,system-ui,sans-serif">2025-07</text>
<text x="694.4" y="288" fill="#8b95a8" font-size="10" text-anchor="middle" font-family="ui-sans-serif,system-ui,sans-serif">2026-01</text>
<text x="740.0" y="288" fill="#8b95a8" font-size="10" text-anchor="middle" font-family="ui-sans-serif,system-ui,sans-serif">2026-04</text>
</svg>
