<svg xmlns="http://www.w3.org/2000/svg" viewBox="0 0 1000 320" role="img" aria-label="Style-factor loadings (significant β, |t| ≥ 2)">
<rect width="1000" height="320" fill="#0f1117"/>
<text x="56" y="22" fill="#e6eaf2" font-size="14" font-family="ui-sans-serif,system-ui,sans-serif" font-weight="600">Style-factor loadings (significant β, |t| ≥ 2)</text>
<line x1="56" y1="232.0" x2="976" y2="232.0" stroke="#2a3140" stroke-dasharray="4 4"/>
<text x="48" y="232.0" fill="#8b95a8" font-size="11" text-anchor="end" dominant-baseline="middle" font-family="ui-sans-serif,system-ui,sans-serif">-0.17</text>
<line x1="56" y1="183.0" x2="976" y2="183.0" stroke="#2a3140" stroke-dasharray="4 4"/>
<text x="48" y="183.0" fill="#8b95a8" font-size="11" text-anchor="end" dominant-baseline="middle" font-family="ui-sans-serif,system-ui,sans-serif">-0.06</text>
<line x1="56" y1="134.0" x2="976" y2="134.0" stroke="#2a3140" stroke-dasharray="4 4"/>
<text x="48" y="134.0" fill="#8b95a8" font-size="11" text-anchor="end" dominant-baseline="middle" font-family="ui-sans-serif,system-ui,sans-serif">0.04</text>
<line x1="56" y1="85.0" x2="976" y2="85.0" stroke="#2a3140" stroke-dasharray="4 4"/>
<text x="48" y="85.0" fill="#8b95a8" font-size="11" text-anchor="end" dominant-baseline="middle" font-family="ui-sans-serif,system-ui,sans-serif">0.15</text>
<line x1="56" y1="36.0" x2="976" y2="36.0" stroke="#2a3140" stroke-dasharray="4 4"/>
<text x="48" y="36.0" fill="#8b95a8" font-size="11" text-anchor="end" dominant-baseline="middle" font-family="ui-sans-serif,system-ui,sans-serif">0.25</text>
<line x1="56" y1="153.0" x2="976" y2="153.0" stroke="#8b95a8" stroke-width="1.2" stroke-dasharray="5 3"/>
<rect x="134.0" y="153.0" width="28.0" height="60.1" fill="#38bdf8" opacity="0.9"><title>iterative agent (remove verifier) · growth.asset_growth: -0.13</title></rect>
<text x="148.0" y="272" fill="#8b95a8" font-size="10" text-anchor="middle" font-family="ui-sans-serif,system-ui,sans-serif" transform="rotate(-28 148.0,272)">growth.asset_gro…</text>
<rect x="285.8" y="77.1" width="28.0" height="75.9" fill="#ffb000" opacity="0.9"><title>ex-ante agent · mom.12_1: 0.16</title></rect>
<text x="332.0" y="272" fill="#8b95a8" font-size="10" text-anchor="middle" font-family="ui-sans-serif,system-ui,sans-serif" transform="rotate(-28 332.0,272)">mom.12_1</text>
<rect x="469.8" y="55.0" width="28.0" height="98.0" fill="#ffb000" opacity="0.9"><title>ex-ante agent · quality.operating_prof: 0.21</title></rect>
<rect x="502.0" y="62.1" width="28.0" height="90.8" fill="#38bdf8" opacity="0.9"><title>iterative agent (remove verifier) · quality.operating_prof: 0.20</title></rect>
<rect x="534.2" y="76.8" width="28.0" height="76.2" fill="#4ade80" opacity="0.9"><title>iterative agent (with memory and performance reflection) · quality.operating_prof: 0.16</title></rect>
<text x="516.0" y="272" fill="#8b95a8" font-size="10" text-anchor="middle" font-family="ui-sans-serif,system-ui,sans-serif" transform="rotate(-28 516.0,272)">quality.operatin…</text>
<rect x="653.8" y="153.0" width="28.0" height="45.8" fill="#ffb000" opacity="0.9"><title>ex-ante agent · size.market_cap_invers: -0.10</title></rect>
<rect x="686.0" y="153.0" width="28.0" height="34.4" fill="#38bdf8" opacity="0.9"><title>iterative agent (remove verifier) · size.market_cap_invers: -0.07</title></rect>
<rect x="718.2" y="153.0" width="28.0" height="51.4" fill="#4ade80" opacity="0.9"><title>iterative agent (with memory and performance reflection) · size.market_cap_invers: -0.11</title></rect>
<text x="700.0" y="272" fill="#8b95a8" font-size="10" text-anchor="middle" font-family="ui-sans-serif,system-ui,sans-serif" transform="rotate(-28 700.0,272)">size.market_cap_…</text>
<rect x="870.0" y="104.3" width="28.0" height="48.6" fill="#38bdf8" opacity="0.9"><title>iterative agent (remove verifier) · volatility.low_60: 0.10</title></rect>
<text x="884.0" y="272" fill="#8b95a8" font-size="10" text-anchor="middle" font-family="ui-sans-serif,system-ui,sans-serif" transform="rotate(-28 884.0,272)">volatility.low_60</text>
<text x="14" y="134.0" fill="#8b95a8" font-size="11" text-anchor="middle" transform="rotate(-90 14,134.0)" font-family="ui-sans-serif,system-ui,sans-serif">β</text>
<rect x="56" y="298" width="10" height="10" fill="#ffb000"/>
<text x="70" y="306" fill="#c8ceda" font-size="10" font-family="ui-sans-serif,system-ui,sans-serif">ex-ante agent</text>
<rect x="190" y="298" width="10" height="10" fill="#38bdf8"/>
<text x="204" y="306" fill="#c8ceda" font-size="10" font-family="ui-sans-serif,system-ui,sans-serif">iterative agent (remove verifier)</text>
<rect x="380" y="298" width="10" height="10" fill="#4ade80"/>
<text x="394" y="306" fill="#c8ceda" font-size="10" font-family="ui-sans-serif,system-ui,sans-serif">iterative agent (with memory and performance reflection)</text>
</svg>
