<svg xmlns="http://www.w3.org/2000/svg" viewBox="0 0 960 316" role="img" aria-label="Mean score std by decision date">
<rect width="960" height="316" fill="#0f1117"/>
<text x="56" y="24" fill="#e6eaf2" font-size="14" font-family="ui-sans-serif,system-ui,sans-serif" font-weight="600">Mean score std by decision date</text>
<line x1="56" y1="272.0" x2="936" y2="272.0" stroke="#2a3140" stroke-dasharray="4 4"/>
<text x="48" y="272.0" fill="#8b95a8" font-size="11" text-anchor="end" dominant-baseline="middle" font-family="ui-sans-serif,system-ui,sans-serif">0.000</text>
<line x1="56" y1="214.0" x2="936" y2="214.0" stroke="#2a3140" stroke-dasharray="4 4"/>
<text x="48" y="214.0" fill="#8b95a8" font-size="11" text-anchor="end" dominant-baseline="middle" font-family="ui-sans-serif,system-ui,sans-serif">0.024</text>
<line x1="56" y1="156.0" x2="936" y2="156.0" stroke="#2a3140" stroke-dasharray="4 4"/>
<text x="48" y="156.0" fill="#8b95a8" font-size="11" text-anchor="end" dominant-baseline="middle" font-family="ui-sans-serif,system-ui,sans-serif">0.048</text>
<line x1="56" y1="98.0" x2="936" y2="98.0" stroke="#2a3140" stroke-dasharray="4 4"/>
<text x="48" y="98.0" fill="#8b95a8" font-size="11" text-anchor="end" dominant-baseline="middle" font-family="ui-sans-serif,system-ui,sans-serif">0.072</text>
<line x1="56" y1="40.0" x2="936" y2="40.0" stroke="#2a3140" stroke-dasharray="4 4"/>
<text x="48" y="40.0" fill="#8b95a8" font-size="11" text-anchor="end" dominant-baseline="middle" font-family="ui-sans-serif,system-ui,sans-serif">0.096</text>
<polyline points="56.0,174.2 114.7,117.3 173.3,128.6 232.0,160.9 290.7,149.7 349.3,95.2 408.0,164.0 466.7,169.1 525.3,191.4 584.0,194.5 642.7,199.8 701.3,100.8 760.0,160.1 818.7,190.9 877.3,163.3 936.0,141.0" fill="none" stroke="#38bdf8" stroke-width="2"/>
<polyline points="56.0,99.1 114.7,142.5 173.3,96.2 232.0,129.6 290.7,165.7 349.3,177.3 408.0,106.6 466.7,156.7 525.3,174.2 584.0,179.3 642.7,124.3 701.3,164.2 760.0,207.3 818.7,193.5 877.3,184.3 936.0,87.2" fill="none" stroke="#ffb000" stroke-width="2"/>
<polyline points="56.0,81.4 114.7,97.7 173.3,120.2 232.0,156.3 290.7,137.9 349.3,188.7 408.0,185.8 466.7,196.7 525.3,192.3 584.0,181.9 642.7,211.5 701.3,132.5 760.0,171.8 818.7,164.7 877.3,188.2 936.0,61.1" fill="none" stroke="#4ade80" stroke-width="2"/>
<text x="56.0" y="286" fill="#8b95a8" font-size="10" text-anchor="middle" font-family="ui-sans-serif,system-ui,sans-serif">2022-07</text>
<text x="173.3" y="286" fill="#8b95a8" font-size="10" text-anchor="middle" font-family="ui-sans-serif,system-ui,sans-serif">2023-01</text>
<text x="290.7" y="286" fill="#8b95a8" font-size="10" text-anchor="middle" font-family="ui-sans-serif,system-ui,sans-serif">2023-07</text>
<text x="408.0" y="286" fill="#8b95a8" font-size="10" text-anchor="middle" font-family="ui-sans-serif,system-ui,sans-serif">2024-01</text>
<text x="525.3" y="286" fill="#8b95a8" font-size="10" text-anchor="middle" font-family="ui-sans-serif,system-ui,sans-serif">2024-07</text>
<text x="642.7" y="286" fill="#8b95a8" font-size="10" text-anchor="middle" font-family="ui-sans-serif,system-ui,sans-serif">2025-01</text>
<text x="760.0" y="286" fill="#8b95a8" font-size="10" text-anchor="middle" font-family="ui-sans-serif,system-ui,sans-serif">2025-07</text>
<text x="877.3" y="286" fill="#8b95a8" font-size="10" text-anchor="middle" font-family="ui-sans-serif,system-ui,sans-serif">2026-01</text>
<text x="936.0" y="286" fill="#8b95a8" font-size="10" text-anchor="middle" font-family="ui-sans-serif,system-ui,sans-serif">2026-04</text>
<rect x="56" y="292" width="10" height="10" fill="#38bdf8"/>
<text x="70" y="300" fill="#c8ceda" font-size="11" dominant-baseline="middle" font-family="ui-sans-serif,system-ui,sans-serif">iterative agent (remove verifier)</text>
<rect x="349" y="292" width="10" height="10" fill="#ffb000"/>
<text x="363" y="300" fill="#c8ceda" font-size="11" dominant-baseline="middle" font-family="ui-sans-serif,system-ui,sans-serif">ex-ante agent</text>
<rect x="643" y="292" width="10" height="10" fill="#4ade80"/>
<text x="657" y="300" fill="#c8ceda" font-size="11" dominant-baseline="middle" font-family="ui-sans-serif,system-ui,sans-serif">iterative agent (with memory and performance reflection)</text>
</svg>
