<svg xmlns="http://www.w3.org/2000/svg" viewBox="0 0 920 176" role="img" aria-label="Ensemble vs single-run IC (h1)">
<rect width="920" height="176" fill="#0f1117"/>
<text x="419" y="24" fill="#e6eaf2" font-size="14" font-family="ui-sans-serif,system-ui,sans-serif" font-weight="600">Ensemble vs single-run IC (h1)</text>
<line x1="419.0" y1="40" x2="419.0" y2="136" stroke="#2a3140" stroke-dasharray="4 4"/>
<text x="419.0" y="150" fill="#8b95a8" font-size="10" text-anchor="middle" font-family="ui-sans-serif,system-ui,sans-serif">0.000</text>
<line x1="538.2" y1="40" x2="538.2" y2="136" stroke="#2a3140" stroke-dasharray="4 4"/>
<text x="538.2" y="150" fill="#8b95a8" font-size="10" text-anchor="middle" font-family="ui-sans-serif,system-ui,sans-serif">0.035</text>
<line x1="657.5" y1="40" x2="657.5" y2="136" stroke="#2a3140" stroke-dasharray="4 4"/>
<text x="657.5" y="150" fill="#8b95a8" font-size="10" text-anchor="middle" font-family="ui-sans-serif,system-ui,sans-serif">0.071</text>
<line x1="776.8" y1="40" x2="776.8" y2="136" stroke="#2a3140" stroke-dasharray="4 4"/>
<text x="776.8" y="150" fill="#8b95a8" font-size="10" text-anchor="middle" font-family="ui-sans-serif,system-ui,sans-serif">0.106</text>
<line x1="896.0" y1="40" x2="896.0" y2="136" stroke="#2a3140" stroke-dasharray="4 4"/>
<text x="896.0" y="150" fill="#8b95a8" font-size="10" text-anchor="middle" font-family="ui-sans-serif,system-ui,sans-serif">0.141</text>
<circle cx="799.6" cy="56.0" r="4.5" fill="#ffb000" opacity="0.55"/>
<circle cx="745.5" cy="56.0" r="4.5" fill="#ffb000" opacity="0.55"/>
<circle cx="729.6" cy="56.0" r="4.5" fill="#ffb000" opacity="0.55"/>
<polygon points="800.6,49.0 806.6,60.0 794.6,60.0" fill="#ffb000"/>
<text x="409" y="56.0" fill="#c8ceda" font-size="12" text-anchor="end" dominant-baseline="middle" font-family="ui-sans-serif,system-ui,sans-serif">ex-ante agent</text>
<circle cx="844.9" cy="88.0" r="4.5" fill="#4ade80" opacity="0.55"/>
<circle cx="654.9" cy="88.0" r="4.5" fill="#4ade80" opacity="0.55"/>
<circle cx="722.5" cy="88.0" r="4.5" fill="#4ade80" opacity="0.55"/>
<polygon points="786.1,81.0 792.1,92.0 780.1,92.0" fill="#4ade80"/>
<text x="409" y="88.0" fill="#c8ceda" font-size="12" text-anchor="end" dominant-baseline="middle" font-family="ui-sans-serif,system-ui,sans-serif">iterative agent (with memory and performance reflection)</text>
<circle cx="573.5" cy="120.0" r="4.5" fill="#38bdf8" opacity="0.55"/>
<circle cx="718.5" cy="120.0" r="4.5" fill="#38bdf8" opacity="0.55"/>
<circle cx="837.8" cy="120.0" r="4.5" fill="#38bdf8" opacity="0.55"/>
<polygon points="744.5,113.0 750.5,124.0 738.5,124.0" fill="#38bdf8"/>
<text x="409" y="120.0" fill="#c8ceda" font-size="12" text-anchor="end" dominant-baseline="middle" font-family="ui-sans-serif,system-ui,sans-serif">iterative agent (remove verifier)</text>
<text x="419" y="166" fill="#8b95a8" font-size="10" font-family="ui-sans-serif,system-ui,sans-serif">dots = per-run IC · ◆ = ensemble mean IC · h1 only · sorted by ensemble IC</text>
</svg>
