<svg xmlns="http://www.w3.org/2000/svg" viewBox="0 0 900 320" role="img" aria-label="Residual NW t by horizon (headline KPI)">
<rect width="900" height="320" fill="#0f1117"/>
<text x="56" y="22" fill="#e6eaf2" font-size="14" font-family="ui-sans-serif,system-ui,sans-serif" font-weight="600">Residual NW t by horizon (headline KPI)</text>
<line x1="56" y1="232.0" x2="876" y2="232.0" stroke="#2a3140" stroke-dasharray="4 4"/>
<text x="48" y="232.0" fill="#8b95a8" font-size="11" text-anchor="end" dominant-baseline="middle" font-family="ui-sans-serif,system-ui,sans-serif">0.00</text>
<line x1="56" y1="183.0" x2="876" y2="183.0" stroke="#2a3140" stroke-dasharray="4 4"/>
<text x="48" y="183.0" fill="#8b95a8" font-size="11" text-anchor="end" dominant-baseline="middle" font-family="ui-sans-serif,system-ui,sans-serif">0.97</text>
<line x1="56" y1="134.0" x2="876" y2="134.0" stroke="#2a3140" stroke-dasharray="4 4"/>
<text x="48" y="134.0" fill="#8b95a8" font-size="11" text-anchor="end" dominant-baseline="middle" font-family="ui-sans-serif,system-ui,sans-serif">1.95</text>
<line x1="56" y1="85.0" x2="876" y2="85.0" stroke="#2a3140" stroke-dasharray="4 4"/>
<text x="48" y="85.0" fill="#8b95a8" font-size="11" text-anchor="end" dominant-baseline="middle" font-family="ui-sans-serif,system-ui,sans-serif">2.92</text>
<line x1="56" y1="36.0" x2="876" y2="36.0" stroke="#2a3140" stroke-dasharray="4 4"/>
<text x="48" y="36.0" fill="#8b95a8" font-size="11" text-anchor="end" dominant-baseline="middle" font-family="ui-sans-serif,system-ui,sans-serif">3.89</text>
<line x1="56" y1="133.3" x2="876" y2="133.3" stroke="#8b95a8" stroke-dasharray="5 3" opacity="0.85"/>
<text x="876" y="129.3" fill="#8b95a8" font-size="10" text-anchor="end" font-family="ui-sans-serif,system-ui,sans-serif">1.96 · 95%</text>
<line x1="56" y1="80.9" x2="876" y2="80.9" stroke="#8b95a8" stroke-dasharray="2 4" opacity="0.85"/>
<text x="876" y="76.9" fill="#8b95a8" font-size="10" text-anchor="end" font-family="ui-sans-serif,system-ui,sans-serif">3.0 · credible</text>
<rect x="112.3" y="68.7" width="28.0" height="163.3" fill="#ffb000" opacity="0.9"><title>ex-ante agent · h1: 3.24</title></rect>
<rect x="144.5" y="101.5" width="28.0" height="130.5" fill="#38bdf8" opacity="0.9"><title>iterative agent (remove verifier) · h1: 2.59</title></rect>
<rect x="176.7" y="108.5" width="28.0" height="123.5" fill="#4ade80" opacity="0.9"><title>iterative agent (with memory and performance reflection) · h1: 2.45</title></rect>
<text x="158.5" y="272" fill="#8b95a8" font-size="10" text-anchor="middle" font-family="ui-sans-serif,system-ui,sans-serif" transform="rotate(-28 158.5,272)">h1</text>
<rect x="317.3" y="95.0" width="28.0" height="137.0" fill="#ffb000" opacity="0.9"><title>ex-ante agent · h2: 2.72</title></rect>
<rect x="349.5" y="57.0" width="28.0" height="175.0" fill="#38bdf8" opacity="0.9"><title>iterative agent (remove verifier) · h2: 3.48</title></rect>
<rect x="381.7" y="121.5" width="28.0" height="110.5" fill="#4ade80" opacity="0.9"><title>iterative agent (with memory and performance reflection) · h2: 2.20</title></rect>
<text x="363.5" y="272" fill="#8b95a8" font-size="10" text-anchor="middle" font-family="ui-sans-serif,system-ui,sans-serif" transform="rotate(-28 363.5,272)">h2</text>
<rect x="522.3" y="68.0" width="28.0" height="164.0" fill="#ffb000" opacity="0.9"><title>ex-ante agent · h3: 3.26</title></rect>
<rect x="554.5" y="95.5" width="28.0" height="136.5" fill="#38bdf8" opacity="0.9"><title>iterative agent (remove verifier) · h3: 2.71</title></rect>
<rect x="586.7" y="122.5" width="28.0" height="109.5" fill="#4ade80" opacity="0.9"><title>iterative agent (with memory and performance reflection) · h3: 2.17</title></rect>
<text x="568.5" y="272" fill="#8b95a8" font-size="10" text-anchor="middle" font-family="ui-sans-serif,system-ui,sans-serif" transform="rotate(-28 568.5,272)">h3</text>
<rect x="727.3" y="104.6" width="28.0" height="127.4" fill="#ffb000" opacity="0.9"><title>ex-ante agent · h4: 2.53</title></rect>
<rect x="759.5" y="116.7" width="28.0" height="115.3" fill="#38bdf8" opacity="0.9"><title>iterative agent (remove verifier) · h4: 2.29</title></rect>
<rect x="791.7" y="154.4" width="28.0" height="77.6" fill="#4ade80" opacity="0.9"><title>iterative agent (with memory and performance reflection) · h4: 1.54</title></rect>
<text x="773.5" y="272" fill="#8b95a8" font-size="10" text-anchor="middle" font-family="ui-sans-serif,system-ui,sans-serif" transform="rotate(-28 773.5,272)">h4</text>
<text x="14" y="134.0" fill="#8b95a8" font-size="11" text-anchor="middle" transform="rotate(-90 14,134.0)" font-family="ui-sans-serif,system-ui,sans-serif">NW t</text>
<rect x="56" y="298" width="10" height="10" fill="#ffb000"/>
<text x="70" y="306" fill="#c8ceda" font-size="10" font-family="ui-sans-serif,system-ui,sans-serif">ex-ante agent</text>
<rect x="190" y="298" width="10" height="10" fill="#38bdf8"/>
<text x="204" y="306" fill="#c8ceda" font-size="10" font-family="ui-sans-serif,system-ui,sans-serif">iterative agent (remove verifier)</text>
<rect x="380" y="298" width="10" height="10" fill="#4ade80"/>
<text x="394" y="306" fill="#c8ceda" font-size="10" font-family="ui-sans-serif,system-ui,sans-serif">iterative agent (with memory and performance reflection)</text>
</svg>
