<svg xmlns="http://www.w3.org/2000/svg" viewBox="0 0 900 320" role="img" aria-label="Residual mean IC by horizon (headline KPI)">
<rect width="900" height="320" fill="#0f1117"/>
<text x="56" y="22" fill="#e6eaf2" font-size="14" font-family="ui-sans-serif,system-ui,sans-serif" font-weight="600">Residual mean IC by horizon (headline KPI)</text>
<line x1="56" y1="232.0" x2="876" y2="232.0" stroke="#2a3140" stroke-dasharray="4 4"/>
<text x="48" y="232.0" fill="#8b95a8" font-size="11" text-anchor="end" dominant-baseline="middle" font-family="ui-sans-serif,system-ui,sans-serif">0.000</text>
<line x1="56" y1="183.0" x2="876" y2="183.0" stroke="#2a3140" stroke-dasharray="4 4"/>
<text x="48" y="183.0" fill="#8b95a8" font-size="11" text-anchor="end" dominant-baseline="middle" font-family="ui-sans-serif,system-ui,sans-serif">0.039</text>
<line x1="56" y1="134.0" x2="876" y2="134.0" stroke="#2a3140" stroke-dasharray="4 4"/>
<text x="48" y="134.0" fill="#8b95a8" font-size="11" text-anchor="end" dominant-baseline="middle" font-family="ui-sans-serif,system-ui,sans-serif">0.078</text>
<line x1="56" y1="85.0" x2="876" y2="85.0" stroke="#2a3140" stroke-dasharray="4 4"/>
<text x="48" y="85.0" fill="#8b95a8" font-size="11" text-anchor="end" dominant-baseline="middle" font-family="ui-sans-serif,system-ui,sans-serif">0.116</text>
<line x1="56" y1="36.0" x2="876" y2="36.0" stroke="#2a3140" stroke-dasharray="4 4"/>
<text x="48" y="36.0" fill="#8b95a8" font-size="11" text-anchor="end" dominant-baseline="middle" font-family="ui-sans-serif,system-ui,sans-serif">0.155</text>
<rect x="112.3" y="57.0" width="28.0" height="175.0" fill="#ffb000" opacity="0.9"><title>ex-ante agent · h1: 0.139</title></rect>
<rect x="144.5" y="83.5" width="28.0" height="148.5" fill="#4ade80" opacity="0.9"><title>iterative agent (with memory and performance reflection) · h1: 0.118</title></rect>
<rect x="176.7" y="100.4" width="28.0" height="131.6" fill="#38bdf8" opacity="0.9"><title>iterative agent (remove verifier) · h1: 0.104</title></rect>
<text x="158.5" y="272" fill="#8b95a8" font-size="10" text-anchor="middle" font-family="ui-sans-serif,system-ui,sans-serif" transform="rotate(-28 158.5,272)">h1</text>
<rect x="317.3" y="108.9" width="28.0" height="123.1" fill="#ffb000" opacity="0.9"><title>ex-ante agent · h2: 0.098</title></rect>
<rect x="349.5" y="145.1" width="28.0" height="86.9" fill="#4ade80" opacity="0.9"><title>iterative agent (with memory and performance reflection) · h2: 0.069</title></rect>
<rect x="381.7" y="104.5" width="28.0" height="127.5" fill="#38bdf8" opacity="0.9"><title>iterative agent (remove verifier) · h2: 0.101</title></rect>
<text x="363.5" y="272" fill="#8b95a8" font-size="10" text-anchor="middle" font-family="ui-sans-serif,system-ui,sans-serif" transform="rotate(-28 363.5,272)">h2</text>
<rect x="522.3" y="66.0" width="28.0" height="166.0" fill="#ffb000" opacity="0.9"><title>ex-ante agent · h3: 0.132</title></rect>
<rect x="554.5" y="107.3" width="28.0" height="124.7" fill="#4ade80" opacity="0.9"><title>iterative agent (with memory and performance reflection) · h3: 0.099</title></rect>
<rect x="586.7" y="99.4" width="28.0" height="132.6" fill="#38bdf8" opacity="0.9"><title>iterative agent (remove verifier) · h3: 0.105</title></rect>
<text x="568.5" y="272" fill="#8b95a8" font-size="10" text-anchor="middle" font-family="ui-sans-serif,system-ui,sans-serif" transform="rotate(-28 568.5,272)">h3</text>
<rect x="727.3" y="76.2" width="28.0" height="155.8" fill="#ffb000" opacity="0.9"><title>ex-ante agent · h4: 0.123</title></rect>
<rect x="759.5" y="119.2" width="28.0" height="112.8" fill="#4ade80" opacity="0.9"><title>iterative agent (with memory and performance reflection) · h4: 0.089</title></rect>
<rect x="791.7" y="81.0" width="28.0" height="151.0" fill="#38bdf8" opacity="0.9"><title>iterative agent (remove verifier) · h4: 0.120</title></rect>
<text x="773.5" y="272" fill="#8b95a8" font-size="10" text-anchor="middle" font-family="ui-sans-serif,system-ui,sans-serif" transform="rotate(-28 773.5,272)">h4</text>
<text x="14" y="134.0" fill="#8b95a8" font-size="11" text-anchor="middle" transform="rotate(-90 14,134.0)" font-family="ui-sans-serif,system-ui,sans-serif">residual mean IC</text>
<rect x="56" y="298" width="10" height="10" fill="#ffb000"/>
<text x="70" y="306" fill="#c8ceda" font-size="10" font-family="ui-sans-serif,system-ui,sans-serif">ex-ante agent</text>
<rect x="190" y="298" width="10" height="10" fill="#4ade80"/>
<text x="204" y="306" fill="#c8ceda" font-size="10" font-family="ui-sans-serif,system-ui,sans-serif">iterative agent (with memory and performance reflection)</text>
<rect x="380" y="298" width="10" height="10" fill="#38bdf8"/>
<text x="394" y="306" fill="#c8ceda" font-size="10" font-family="ui-sans-serif,system-ui,sans-serif">iterative agent (remove verifier)</text>
</svg>
