<svg xmlns="http://www.w3.org/2000/svg" viewBox="0 0 1070 320" role="img" aria-label="Mean sophistication (L0–L4)">
<rect width="1070" height="320" fill="#0f1117"/>
<text x="56" y="22" fill="#e6eaf2" font-size="14" font-family="ui-sans-serif,system-ui,sans-serif" font-weight="600">Mean sophistication (L0–L4)</text>
<line x1="56" y1="232.0" x2="1046" y2="232.0" stroke="#2a3140" stroke-dasharray="4 4"/>
<text x="48" y="232.0" fill="#8b95a8" font-size="11" text-anchor="end" dominant-baseline="middle" font-family="ui-sans-serif,system-ui,sans-serif">0.00</text>
<line x1="56" y1="183.0" x2="1046" y2="183.0" stroke="#2a3140" stroke-dasharray="4 4"/>
<text x="48" y="183.0" fill="#8b95a8" font-size="11" text-anchor="end" dominant-baseline="middle" font-family="ui-sans-serif,system-ui,sans-serif">0.76</text>
<line x1="56" y1="134.0" x2="1046" y2="134.0" stroke="#2a3140" stroke-dasharray="4 4"/>
<text x="48" y="134.0" fill="#8b95a8" font-size="11" text-anchor="end" dominant-baseline="middle" font-family="ui-sans-serif,system-ui,sans-serif">1.53</text>
<line x1="56" y1="85.0" x2="1046" y2="85.0" stroke="#2a3140" stroke-dasharray="4 4"/>
<text x="48" y="85.0" fill="#8b95a8" font-size="11" text-anchor="end" dominant-baseline="middle" font-family="ui-sans-serif,system-ui,sans-serif">2.29</text>
<line x1="56" y1="36.0" x2="1046" y2="36.0" stroke="#2a3140" stroke-dasharray="4 4"/>
<text x="48" y="36.0" fill="#8b95a8" font-size="11" text-anchor="end" dominant-baseline="middle" font-family="ui-sans-serif,system-ui,sans-serif">3.05</text>
<rect x="80.0" y="57.0" width="42.0" height="175.0" fill="#818cf8" opacity="0.9"><title>trading agent: 2.73</title></rect>
<text x="101.0" y="272" fill="#8b95a8" font-size="10" text-anchor="middle" font-family="ui-sans-serif,system-ui,sans-serif" transform="rotate(-28 101.0,272)">trading agent</text>
<rect x="170.0" y="88.5" width="42.0" height="143.5" fill="#facc15" opacity="0.9"><title>ex-ante agent: 2.23</title></rect>
<text x="191.0" y="272" fill="#8b95a8" font-size="10" text-anchor="middle" font-family="ui-sans-serif,system-ui,sans-serif" transform="rotate(-28 191.0,272)">ex-ante agent</text>
<rect x="260.0" y="92.7" width="42.0" height="139.3" fill="#ec4899" opacity="0.9"><title>iterative agent (with memory and performance reflection): 2.17</title></rect>
<text x="281.0" y="272" fill="#8b95a8" font-size="10" text-anchor="middle" font-family="ui-sans-serif,system-ui,sans-serif" transform="rotate(-28 281.0,272)">iterative agen…</text>
<rect x="350.0" y="94.1" width="42.0" height="137.9" fill="#f97316" opacity="0.9"><title>openclaw agent: 2.15</title></rect>
<text x="371.0" y="272" fill="#8b95a8" font-size="10" text-anchor="middle" font-family="ui-sans-serif,system-ui,sans-serif" transform="rotate(-28 371.0,272)">openclaw agent</text>
<rect x="440.0" y="95.5" width="42.0" height="136.5" fill="#ffb000" opacity="0.9"><title>iterative agent (remove verifier): 2.12</title></rect>
<text x="461.0" y="272" fill="#8b95a8" font-size="10" text-anchor="middle" font-family="ui-sans-serif,system-ui,sans-serif" transform="rotate(-28 461.0,272)">iterative agen…</text>
<rect x="530.0" y="99.7" width="42.0" height="132.3" fill="#c084fc" opacity="0.9"><title>floor agent (MiniMax): 2.06</title></rect>
<text x="551.0" y="272" fill="#8b95a8" font-size="10" text-anchor="middle" font-family="ui-sans-serif,system-ui,sans-serif" transform="rotate(-28 551.0,272)">floor agent (M…</text>
<rect x="620.0" y="99.8" width="42.0" height="132.2" fill="#4ade80" opacity="0.9"><title>floor agent (GLM): 2.06</title></rect>
<text x="641.0" y="272" fill="#8b95a8" font-size="10" text-anchor="middle" font-family="ui-sans-serif,system-ui,sans-serif" transform="rotate(-28 641.0,272)">floor agent (G…</text>
<rect x="710.0" y="101.6" width="42.0" height="130.4" fill="#2dd4bf" opacity="0.9"><title>floor agent (Grok 4.5): 2.03</title></rect>
<text x="731.0" y="272" fill="#8b95a8" font-size="10" text-anchor="middle" font-family="ui-sans-serif,system-ui,sans-serif" transform="rotate(-28 731.0,272)">floor agent (G…</text>
<rect x="800.0" y="104.1" width="42.0" height="127.9" fill="#38bdf8" opacity="0.9"><title>floor agent (MiMo): 1.99</title></rect>
<text x="821.0" y="272" fill="#8b95a8" font-size="10" text-anchor="middle" font-family="ui-sans-serif,system-ui,sans-serif" transform="rotate(-28 821.0,272)">floor agent (M…</text>
<rect x="890.0" y="104.7" width="42.0" height="127.3" fill="#ffb000" opacity="0.9"><title>floor agent (MiMo) - no memory: 1.98</title></rect>
<text x="911.0" y="272" fill="#8b95a8" font-size="10" text-anchor="middle" font-family="ui-sans-serif,system-ui,sans-serif" transform="rotate(-28 911.0,272)">floor agent (M…</text>
<rect x="980.0" y="107.5" width="42.0" height="124.5" fill="#fb7185" opacity="0.9"><title>floor agent (Grok 4.3): 1.94</title></rect>
<text x="1001.0" y="272" fill="#8b95a8" font-size="10" text-anchor="middle" font-family="ui-sans-serif,system-ui,sans-serif" transform="rotate(-28 1001.0,272)">floor agent (G…</text>
<text x="14" y="134.0" fill="#8b95a8" font-size="11" text-anchor="middle" transform="rotate(-90 14,134.0)" font-family="ui-sans-serif,system-ui,sans-serif">mean level</text>
</svg>
