<svg xmlns="http://www.w3.org/2000/svg" viewBox="0 0 890 320" role="img" aria-label="Mean score std across K repeats (lower = more reproducible)">
<rect width="890" height="320" fill="#0f1117"/>
<text x="56" y="22" fill="#e6eaf2" font-size="14" font-family="ui-sans-serif,system-ui,sans-serif" font-weight="600">Mean score std across K repeats (lower = more reproducible)</text>
<line x1="56" y1="232.0" x2="866" y2="232.0" stroke="#2a3140" stroke-dasharray="4 4"/>
<text x="48" y="232.0" fill="#8b95a8" font-size="11" text-anchor="end" dominant-baseline="middle" font-family="ui-sans-serif,system-ui,sans-serif">0.000</text>
<line x1="56" y1="183.0" x2="866" y2="183.0" stroke="#2a3140" stroke-dasharray="4 4"/>
<text x="48" y="183.0" fill="#8b95a8" font-size="11" text-anchor="end" dominant-baseline="middle" font-family="ui-sans-serif,system-ui,sans-serif">0.036</text>
<line x1="56" y1="134.0" x2="866" y2="134.0" stroke="#2a3140" stroke-dasharray="4 4"/>
<text x="48" y="134.0" fill="#8b95a8" font-size="11" text-anchor="end" dominant-baseline="middle" font-family="ui-sans-serif,system-ui,sans-serif">0.072</text>
<line x1="56" y1="85.0" x2="866" y2="85.0" stroke="#2a3140" stroke-dasharray="4 4"/>
<text x="48" y="85.0" fill="#8b95a8" font-size="11" text-anchor="end" dominant-baseline="middle" font-family="ui-sans-serif,system-ui,sans-serif">0.109</text>
<line x1="56" y1="36.0" x2="866" y2="36.0" stroke="#2a3140" stroke-dasharray="4 4"/>
<text x="48" y="36.0" fill="#8b95a8" font-size="11" text-anchor="end" dominant-baseline="middle" font-family="ui-sans-serif,system-ui,sans-serif">0.145</text>
<rect x="80.0" y="192.1" width="42.0" height="39.9" fill="#38bdf8" opacity="0.9"><title>floor agent (MiMo): 0.029</title></rect>
<text x="101.0" y="272" fill="#8b95a8" font-size="10" text-anchor="middle" font-family="ui-sans-serif,system-ui,sans-serif" transform="rotate(-28 101.0,272)">floor agent (M…</text>
<rect x="170.0" y="190.9" width="42.0" height="41.1" fill="#ffb000" opacity="0.9"><title>floor agent (MiMo) - no memory: 0.030</title></rect>
<text x="191.0" y="272" fill="#8b95a8" font-size="10" text-anchor="middle" font-family="ui-sans-serif,system-ui,sans-serif" transform="rotate(-28 191.0,272)">floor agent (M…</text>
<rect x="260.0" y="171.3" width="42.0" height="60.7" fill="#818cf8" opacity="0.9"><title>trading agent: 0.045</title></rect>
<text x="281.0" y="272" fill="#8b95a8" font-size="10" text-anchor="middle" font-family="ui-sans-serif,system-ui,sans-serif" transform="rotate(-28 281.0,272)">trading agent</text>
<rect x="350.0" y="170.7" width="42.0" height="61.3" fill="#2dd4bf" opacity="0.9"><title>floor agent (Grok 4.5): 0.045</title></rect>
<text x="371.0" y="272" fill="#8b95a8" font-size="10" text-anchor="middle" font-family="ui-sans-serif,system-ui,sans-serif" transform="rotate(-28 371.0,272)">floor agent (G…</text>
<rect x="440.0" y="163.4" width="42.0" height="68.6" fill="#facc15" opacity="0.9"><title>ex-ante agent: 0.051</title></rect>
<text x="461.0" y="272" fill="#8b95a8" font-size="10" text-anchor="middle" font-family="ui-sans-serif,system-ui,sans-serif" transform="rotate(-28 461.0,272)">ex-ante agent</text>
<rect x="530.0" y="138.1" width="42.0" height="93.9" fill="#4ade80" opacity="0.9"><title>floor agent (GLM): 0.069</title></rect>
<text x="551.0" y="272" fill="#8b95a8" font-size="10" text-anchor="middle" font-family="ui-sans-serif,system-ui,sans-serif" transform="rotate(-28 551.0,272)">floor agent (G…</text>
<rect x="620.0" y="132.2" width="42.0" height="99.8" fill="#c084fc" opacity="0.9"><title>floor agent (MiniMax): 0.074</title></rect>
<text x="641.0" y="272" fill="#8b95a8" font-size="10" text-anchor="middle" font-family="ui-sans-serif,system-ui,sans-serif" transform="rotate(-28 641.0,272)">floor agent (M…</text>
<rect x="710.0" y="111.8" width="42.0" height="120.2" fill="#fb7185" opacity="0.9"><title>floor agent (Grok 4.3): 0.089</title></rect>
<text x="731.0" y="272" fill="#8b95a8" font-size="10" text-anchor="middle" font-family="ui-sans-serif,system-ui,sans-serif" transform="rotate(-28 731.0,272)">floor agent (G…</text>
<rect x="800.0" y="57.0" width="42.0" height="175.0" fill="#f97316" opacity="0.9"><title>openclaw agent: 0.129</title></rect>
<text x="821.0" y="272" fill="#8b95a8" font-size="10" text-anchor="middle" font-family="ui-sans-serif,system-ui,sans-serif" transform="rotate(-28 821.0,272)">openclaw agent</text>
<text x="14" y="134.0" fill="#8b95a8" font-size="11" text-anchor="middle" transform="rotate(-90 14,134.0)" font-family="ui-sans-serif,system-ui,sans-serif">mean score std</text>
</svg>
