<svg xmlns="http://www.w3.org/2000/svg" viewBox="0 0 920 368" role="img" aria-label="Ensemble vs single-run IC (h1)">
<rect width="920" height="368" fill="#0f1117"/>
<text x="268" y="24" fill="#e6eaf2" font-size="14" font-family="ui-sans-serif,system-ui,sans-serif" font-weight="600">Ensemble vs single-run IC (h1)</text>
<line x1="268.0" y1="40" x2="268.0" y2="328" stroke="#2a3140" stroke-dasharray="4 4"/>
<text x="268.0" y="342" fill="#8b95a8" font-size="10" text-anchor="middle" font-family="ui-sans-serif,system-ui,sans-serif">0.000</text>
<line x1="425.0" y1="40" x2="425.0" y2="328" stroke="#2a3140" stroke-dasharray="4 4"/>
<text x="425.0" y="342" fill="#8b95a8" font-size="10" text-anchor="middle" font-family="ui-sans-serif,system-ui,sans-serif">0.053</text>
<line x1="582.0" y1="40" x2="582.0" y2="328" stroke="#2a3140" stroke-dasharray="4 4"/>
<text x="582.0" y="342" fill="#8b95a8" font-size="10" text-anchor="middle" font-family="ui-sans-serif,system-ui,sans-serif">0.105</text>
<line x1="739.0" y1="40" x2="739.0" y2="328" stroke="#2a3140" stroke-dasharray="4 4"/>
<text x="739.0" y="342" fill="#8b95a8" font-size="10" text-anchor="middle" font-family="ui-sans-serif,system-ui,sans-serif">0.158</text>
<line x1="896.0" y1="40" x2="896.0" y2="328" stroke="#2a3140" stroke-dasharray="4 4"/>
<text x="896.0" y="342" fill="#8b95a8" font-size="10" text-anchor="middle" font-family="ui-sans-serif,system-ui,sans-serif">0.211</text>
<circle cx="804.0" cy="56.0" r="4.5" fill="#38bdf8" opacity="0.55"/>
<circle cx="828.7" cy="56.0" r="4.5" fill="#38bdf8" opacity="0.55"/>
<circle cx="754.6" cy="56.0" r="4.5" fill="#38bdf8" opacity="0.55"/>
<polygon points="824.5,49.0 830.5,60.0 818.5,60.0" fill="#38bdf8"/>
<text x="258" y="56.0" fill="#c8ceda" font-size="12" text-anchor="end" dominant-baseline="middle" font-family="ui-sans-serif,system-ui,sans-serif">floor agent (MiMo)</text>
<circle cx="797.4" cy="88.0" r="4.5" fill="#ffb000" opacity="0.55"/>
<circle cx="776.0" cy="88.0" r="4.5" fill="#ffb000" opacity="0.55"/>
<circle cx="775.1" cy="88.0" r="4.5" fill="#ffb000" opacity="0.55"/>
<polygon points="804.9,81.0 810.9,92.0 798.9,92.0" fill="#ffb000"/>
<text x="258" y="88.0" fill="#c8ceda" font-size="12" text-anchor="end" dominant-baseline="middle" font-family="ui-sans-serif,system-ui,sans-serif">floor agent (MiMo) - no memory</text>
<circle cx="741.2" cy="120.0" r="4.5" fill="#818cf8" opacity="0.55"/>
<circle cx="682.2" cy="120.0" r="4.5" fill="#818cf8" opacity="0.55"/>
<circle cx="727.8" cy="120.0" r="4.5" fill="#818cf8" opacity="0.55"/>
<polygon points="780.8,113.0 786.8,124.0 774.8,124.0" fill="#818cf8"/>
<text x="258" y="120.0" fill="#c8ceda" font-size="12" text-anchor="end" dominant-baseline="middle" font-family="ui-sans-serif,system-ui,sans-serif">trading agent</text>
<circle cx="678.6" cy="152.0" r="4.5" fill="#c084fc" opacity="0.55"/>
<circle cx="765.0" cy="152.0" r="4.5" fill="#c084fc" opacity="0.55"/>
<circle cx="639.3" cy="152.0" r="4.5" fill="#c084fc" opacity="0.55"/>
<polygon points="730.4,145.0 736.4,156.0 724.4,156.0" fill="#c084fc"/>
<text x="258" y="152.0" fill="#c8ceda" font-size="12" text-anchor="end" dominant-baseline="middle" font-family="ui-sans-serif,system-ui,sans-serif">floor agent (MiniMax)</text>
<circle cx="536.3" cy="184.0" r="4.5" fill="#f97316" opacity="0.55"/>
<circle cx="644.4" cy="184.0" r="4.5" fill="#f97316" opacity="0.55"/>
<circle cx="546.7" cy="184.0" r="4.5" fill="#f97316" opacity="0.55"/>
<polygon points="624.7,177.0 630.7,188.0 618.7,188.0" fill="#f97316"/>
<text x="258" y="184.0" fill="#c8ceda" font-size="12" text-anchor="end" dominant-baseline="middle" font-family="ui-sans-serif,system-ui,sans-serif">openclaw agent</text>
<circle cx="603.3" cy="216.0" r="4.5" fill="#facc15" opacity="0.55"/>
<circle cx="555.7" cy="216.0" r="4.5" fill="#facc15" opacity="0.55"/>
<circle cx="541.7" cy="216.0" r="4.5" fill="#facc15" opacity="0.55"/>
<polygon points="604.2,209.0 610.2,220.0 598.2,220.0" fill="#facc15"/>
<text x="258" y="216.0" fill="#c8ceda" font-size="12" text-anchor="end" dominant-baseline="middle" font-family="ui-sans-serif,system-ui,sans-serif">ex-ante agent</text>
<circle cx="544.0" cy="248.0" r="4.5" fill="#fb7185" opacity="0.55"/>
<circle cx="534.5" cy="248.0" r="4.5" fill="#fb7185" opacity="0.55"/>
<circle cx="545.5" cy="248.0" r="4.5" fill="#fb7185" opacity="0.55"/>
<polygon points="554.8,241.0 560.8,252.0 548.8,252.0" fill="#fb7185"/>
<text x="258" y="248.0" fill="#c8ceda" font-size="12" text-anchor="end" dominant-baseline="middle" font-family="ui-sans-serif,system-ui,sans-serif">floor agent (Grok 4.3)</text>
<circle cx="566.7" cy="280.0" r="4.5" fill="#2dd4bf" opacity="0.55"/>
<circle cx="583.3" cy="280.0" r="4.5" fill="#2dd4bf" opacity="0.55"/>
<circle cx="455.0" cy="280.0" r="4.5" fill="#2dd4bf" opacity="0.55"/>
<polygon points="552.1,273.0 558.1,284.0 546.1,284.0" fill="#2dd4bf"/>
<text x="258" y="280.0" fill="#c8ceda" font-size="12" text-anchor="end" dominant-baseline="middle" font-family="ui-sans-serif,system-ui,sans-serif">floor agent (Grok 4.5)</text>
<circle cx="511.6" cy="312.0" r="4.5" fill="#4ade80" opacity="0.55"/>
<circle cx="569.9" cy="312.0" r="4.5" fill="#4ade80" opacity="0.55"/>
<circle cx="454.4" cy="312.0" r="4.5" fill="#4ade80" opacity="0.55"/>
<polygon points="528.6,305.0 534.6,316.0 522.6,316.0" fill="#4ade80"/>
<text x="258" y="312.0" fill="#c8ceda" font-size="12" text-anchor="end" dominant-baseline="middle" font-family="ui-sans-serif,system-ui,sans-serif">floor agent (GLM)</text>
<text x="268" y="358" fill="#8b95a8" font-size="10" font-family="ui-sans-serif,system-ui,sans-serif">dots = per-run IC · ◆ = ensemble mean IC · h1 only · sorted by ensemble IC</text>
</svg>
