<svg xmlns="http://www.w3.org/2000/svg" viewBox="0 0 890 320" role="img" aria-label="Mean R² (style + sector controls)">
<rect width="890" height="320" fill="#0f1117"/>
<text x="56" y="22" fill="#e6eaf2" font-size="14" font-family="ui-sans-serif,system-ui,sans-serif" font-weight="600">Mean R² (style + sector controls)</text>
<line x1="56" y1="232.0" x2="866" y2="232.0" stroke="#2a3140" stroke-dasharray="4 4"/>
<text x="48" y="232.0" fill="#8b95a8" font-size="11" text-anchor="end" dominant-baseline="middle" font-family="ui-sans-serif,system-ui,sans-serif">0.000</text>
<line x1="56" y1="183.0" x2="866" y2="183.0" stroke="#2a3140" stroke-dasharray="4 4"/>
<text x="48" y="183.0" fill="#8b95a8" font-size="11" text-anchor="end" dominant-baseline="middle" font-family="ui-sans-serif,system-ui,sans-serif">0.202</text>
<line x1="56" y1="134.0" x2="866" y2="134.0" stroke="#2a3140" stroke-dasharray="4 4"/>
<text x="48" y="134.0" fill="#8b95a8" font-size="11" text-anchor="end" dominant-baseline="middle" font-family="ui-sans-serif,system-ui,sans-serif">0.404</text>
<line x1="56" y1="85.0" x2="866" y2="85.0" stroke="#2a3140" stroke-dasharray="4 4"/>
<text x="48" y="85.0" fill="#8b95a8" font-size="11" text-anchor="end" dominant-baseline="middle" font-family="ui-sans-serif,system-ui,sans-serif">0.605</text>
<line x1="56" y1="36.0" x2="866" y2="36.0" stroke="#2a3140" stroke-dasharray="4 4"/>
<text x="48" y="36.0" fill="#8b95a8" font-size="11" text-anchor="end" dominant-baseline="middle" font-family="ui-sans-serif,system-ui,sans-serif">0.807</text>
<rect x="80.0" y="111.6" width="42.0" height="120.4" fill="#818cf8" opacity="0.9"><title>trading agent: 0.496</title></rect>
<text x="101.0" y="272" fill="#8b95a8" font-size="10" text-anchor="middle" font-family="ui-sans-serif,system-ui,sans-serif" transform="rotate(-28 101.0,272)">trading agent</text>
<rect x="170.0" y="105.0" width="42.0" height="127.0" fill="#facc15" opacity="0.9"><title>ex-ante agent: 0.523</title></rect>
<text x="191.0" y="272" fill="#8b95a8" font-size="10" text-anchor="middle" font-family="ui-sans-serif,system-ui,sans-serif" transform="rotate(-28 191.0,272)">ex-ante agent</text>
<rect x="260.0" y="104.9" width="42.0" height="127.1" fill="#f97316" opacity="0.9"><title>openclaw agent: 0.524</title></rect>
<text x="281.0" y="272" fill="#8b95a8" font-size="10" text-anchor="middle" font-family="ui-sans-serif,system-ui,sans-serif" transform="rotate(-28 281.0,272)">openclaw agent</text>
<rect x="350.0" y="85.6" width="42.0" height="146.4" fill="#38bdf8" opacity="0.9"><title>floor agent (MiMo): 0.603</title></rect>
<text x="371.0" y="272" fill="#8b95a8" font-size="10" text-anchor="middle" font-family="ui-sans-serif,system-ui,sans-serif" transform="rotate(-28 371.0,272)">floor agent (M…</text>
<rect x="440.0" y="83.4" width="42.0" height="148.6" fill="#ffb000" opacity="0.9"><title>floor agent (MiMo) - no memory: 0.612</title></rect>
<text x="461.0" y="272" fill="#8b95a8" font-size="10" text-anchor="middle" font-family="ui-sans-serif,system-ui,sans-serif" transform="rotate(-28 461.0,272)">floor agent (M…</text>
<rect x="530.0" y="82.5" width="42.0" height="149.5" fill="#4ade80" opacity="0.9"><title>floor agent (GLM): 0.616</title></rect>
<text x="551.0" y="272" fill="#8b95a8" font-size="10" text-anchor="middle" font-family="ui-sans-serif,system-ui,sans-serif" transform="rotate(-28 551.0,272)">floor agent (G…</text>
<rect x="620.0" y="76.6" width="42.0" height="155.4" fill="#c084fc" opacity="0.9"><title>floor agent (MiniMax): 0.640</title></rect>
<text x="641.0" y="272" fill="#8b95a8" font-size="10" text-anchor="middle" font-family="ui-sans-serif,system-ui,sans-serif" transform="rotate(-28 641.0,272)">floor agent (M…</text>
<rect x="710.0" y="75.6" width="42.0" height="156.4" fill="#2dd4bf" opacity="0.9"><title>floor agent (Grok 4.5): 0.644</title></rect>
<text x="731.0" y="272" fill="#8b95a8" font-size="10" text-anchor="middle" font-family="ui-sans-serif,system-ui,sans-serif" transform="rotate(-28 731.0,272)">floor agent (G…</text>
<rect x="800.0" y="57.0" width="42.0" height="175.0" fill="#fb7185" opacity="0.9"><title>floor agent (Grok 4.3): 0.721</title></rect>
<text x="821.0" y="272" fill="#8b95a8" font-size="10" text-anchor="middle" font-family="ui-sans-serif,system-ui,sans-serif" transform="rotate(-28 821.0,272)">floor agent (G…</text>
<text x="14" y="134.0" fill="#8b95a8" font-size="11" text-anchor="middle" transform="rotate(-90 14,134.0)" font-family="ui-sans-serif,system-ui,sans-serif">mean R²</text>
</svg>
