<svg xmlns="http://www.w3.org/2000/svg" viewBox="0 0 900 300" role="img" aria-label="Mean score std by decision date">
<rect width="900" height="300" fill="#0f1117"/>
<text x="56" y="22" fill="#e6eaf2" font-size="14" font-family="ui-sans-serif,system-ui,sans-serif" font-weight="600">Mean score std by decision date</text>
<line x1="56" y1="252.0" x2="740" y2="252.0" stroke="#2a3140" stroke-dasharray="4 4"/>
<text x="48" y="252.0" fill="#8b95a8" font-size="11" text-anchor="end" dominant-baseline="middle" font-family="ui-sans-serif,system-ui,sans-serif">0.000</text>
<line x1="56" y1="198.0" x2="740" y2="198.0" stroke="#2a3140" stroke-dasharray="4 4"/>
<text x="48" y="198.0" fill="#8b95a8" font-size="11" text-anchor="end" dominant-baseline="middle" font-family="ui-sans-serif,system-ui,sans-serif">0.046</text>
<line x1="56" y1="144.0" x2="740" y2="144.0" stroke="#2a3140" stroke-dasharray="4 4"/>
<text x="48" y="144.0" fill="#8b95a8" font-size="11" text-anchor="end" dominant-baseline="middle" font-family="ui-sans-serif,system-ui,sans-serif">0.092</text>
<line x1="56" y1="90.0" x2="740" y2="90.0" stroke="#2a3140" stroke-dasharray="4 4"/>
<text x="48" y="90.0" fill="#8b95a8" font-size="11" text-anchor="end" dominant-baseline="middle" font-family="ui-sans-serif,system-ui,sans-serif">0.138</text>
<line x1="56" y1="36.0" x2="740" y2="36.0" stroke="#2a3140" stroke-dasharray="4 4"/>
<text x="48" y="36.0" fill="#8b95a8" font-size="11" text-anchor="end" dominant-baseline="middle" font-family="ui-sans-serif,system-ui,sans-serif">0.184</text>
<polyline points="56.0,221.6 101.6,201.2 147.2,215.2 192.8,228.9 238.4,213.7 284.0,231.5 329.6,236.2 375.2,213.7 420.8,214.9 466.4,207.7 512.0,232.0 557.6,214.8 603.2,206.2 648.8,212.9 694.4,197.9 740.0,214.3" fill="none" stroke="#ffb000" stroke-width="2"/>
<text x="746" y="214.3" fill="#ffb000" font-size="10" dominant-baseline="middle" font-family="ui-sans-serif,system-ui,sans-serif">floor agent (MiMo) - no memory</text>
<polyline points="56.0,218.5 101.6,221.9 147.2,199.4 192.8,211.7 238.4,208.7 284.0,223.4 329.6,223.8 375.2,217.1 420.8,207.9 466.4,223.3 512.0,220.5 557.6,225.0 603.2,222.6 648.8,215.9 694.4,209.1 740.0,230.6" fill="none" stroke="#38bdf8" stroke-width="2"/>
<text x="746" y="230.6" fill="#38bdf8" font-size="10" dominant-baseline="middle" font-family="ui-sans-serif,system-ui,sans-serif">floor agent (MiMo)</text>
<polyline points="56.0,196.3 101.6,206.9 147.2,186.3 192.8,172.8 238.4,199.5 284.0,174.3 329.6,186.7 375.2,129.3 420.8,148.3 466.4,137.1 512.0,149.0 557.6,171.7 603.2,144.6 648.8,175.4 694.4,160.6 740.0,193.0" fill="none" stroke="#4ade80" stroke-width="2"/>
<text x="746" y="193.0" fill="#4ade80" font-size="10" dominant-baseline="middle" font-family="ui-sans-serif,system-ui,sans-serif">floor agent (GLM)</text>
<polyline points="56.0,180.7 101.6,181.2 147.2,133.3 192.8,137.4 238.4,170.3 284.0,164.6 329.6,181.5 375.2,174.3 420.8,152.2 466.4,162.5 512.0,166.8 557.6,154.3 603.2,173.8 648.8,166.4 694.4,158.4 740.0,191.6" fill="none" stroke="#c084fc" stroke-width="2"/>
<text x="746" y="191.6" fill="#c084fc" font-size="10" dominant-baseline="middle" font-family="ui-sans-serif,system-ui,sans-serif">floor agent (MiniMax)</text>
<polyline points="56.0,170.4 101.6,141.2 147.2,160.4 192.8,160.0 238.4,161.6 284.0,162.5 329.6,148.6 375.2,149.0 420.8,163.6 466.4,143.0 512.0,139.8 557.6,128.9 603.2,134.6 648.8,101.5 694.4,157.3 740.0,143.7" fill="none" stroke="#fb7185" stroke-width="2"/>
<text x="746" y="143.7" fill="#fb7185" font-size="10" dominant-baseline="middle" font-family="ui-sans-serif,system-ui,sans-serif">floor agent (Grok 4.3)</text>
<polyline points="56.0,196.8 101.6,217.1 147.2,219.3 192.8,195.4 238.4,211.4 284.0,220.9 329.6,169.7 375.2,197.1 420.8,179.3 466.4,192.6 512.0,168.7 557.6,191.6 603.2,199.1 648.8,194.0 694.4,212.8 740.0,217.7" fill="none" stroke="#2dd4bf" stroke-width="2"/>
<text x="746" y="217.7" fill="#2dd4bf" font-size="10" dominant-baseline="middle" font-family="ui-sans-serif,system-ui,sans-serif">floor agent (Grok 4.5)</text>
<polyline points="56.0,121.7 101.6,111.0 147.2,152.0 192.8,124.6 238.4,121.1 284.0,117.1 329.6,67.9 375.2,55.6 420.8,57.2 466.4,86.4 512.0,85.3 557.6,113.2 603.2,78.6 648.8,99.0 694.4,93.2 740.0,123.3" fill="none" stroke="#f97316" stroke-width="2"/>
<text x="746" y="123.3" fill="#f97316" font-size="10" dominant-baseline="middle" font-family="ui-sans-serif,system-ui,sans-serif">openclaw agent</text>
<polyline points="56.0,169.6 101.6,200.5 147.2,211.8 192.8,219.2 238.4,207.6 284.0,185.8 329.6,197.4 375.2,213.6 420.8,202.4 466.4,193.2 512.0,202.0 557.6,192.9 603.2,198.3 648.8,201.9 694.4,203.4 740.0,191.1" fill="none" stroke="#818cf8" stroke-width="2"/>
<text x="746" y="191.1" fill="#818cf8" font-size="10" dominant-baseline="middle" font-family="ui-sans-serif,system-ui,sans-serif">trading agent</text>
<polyline points="56.0,168.4 101.6,189.4 147.2,167.0 192.8,183.1 238.4,200.6 284.0,206.2 329.6,172.0 375.2,196.3 420.8,204.7 466.4,207.2 512.0,180.6 557.6,199.9 603.2,220.7 648.8,214.1 694.4,209.6 740.0,162.7" fill="none" stroke="#facc15" stroke-width="2"/>
<text x="746" y="162.7" fill="#facc15" font-size="10" dominant-baseline="middle" font-family="ui-sans-serif,system-ui,sans-serif">ex-ante agent</text>
<text x="56.0" y="288" fill="#8b95a8" font-size="10" text-anchor="middle" font-family="ui-sans-serif,system-ui,sans-serif">2022-07</text>
<text x="147.2" y="288" fill="#8b95a8" font-size="10" text-anchor="middle" font-family="ui-sans-serif,system-ui,sans-serif">2023-01</text>
<text x="238.4" y="288" fill="#8b95a8" font-size="10" text-anchor="middle" font-family="ui-sans-serif,system-ui,sans-serif">2023-07</text>
<text x="329.6" y="288" fill="#8b95a8" font-size="10" text-anchor="middle" font-family="ui-sans-serif,system-ui,sans-serif">2024-01</text>
<text x="420.8" y="288" fill="#8b95a8" font-size="10" text-anchor="middle" font-family="ui-sans-serif,system-ui,sans-serif">2024-07</text>
<text x="512.0" y="288" fill="#8b95a8" font-size="10" text-anchor="middle" font-family="ui-sans-serif,system-ui,sans-serif">2025-01</text>
<text x="603.2" y="288" fill="#8b95a8" font-size="10" text-anchor="middle" font-family="ui-sans-serif,system-ui,sans-serif">2025-07</text>
<text x="694.4" y="288" fill="#8b95a8" font-size="10" text-anchor="middle" font-family="ui-sans-serif,system-ui,sans-serif">2026-01</text>
<text x="740.0" y="288" fill="#8b95a8" font-size="10" text-anchor="middle" font-family="ui-sans-serif,system-ui,sans-serif">2026-04</text>
</svg>
