<svg xmlns="http://www.w3.org/2000/svg" viewBox="0 0 912 320" role="img" aria-label="Residual mean IC by horizon (headline KPI)">
<rect width="912" height="320" fill="#0f1117"/>
<text x="56" y="22" fill="#e6eaf2" font-size="14" font-family="ui-sans-serif,system-ui,sans-serif" font-weight="600">Residual mean IC by horizon (headline KPI)</text>
<line x1="56" y1="232.0" x2="888" y2="232.0" stroke="#2a3140" stroke-dasharray="4 4"/>
<text x="48" y="232.0" fill="#8b95a8" font-size="11" text-anchor="end" dominant-baseline="middle" font-family="ui-sans-serif,system-ui,sans-serif">0.000</text>
<line x1="56" y1="183.0" x2="888" y2="183.0" stroke="#2a3140" stroke-dasharray="4 4"/>
<text x="48" y="183.0" fill="#8b95a8" font-size="11" text-anchor="end" dominant-baseline="middle" font-family="ui-sans-serif,system-ui,sans-serif">0.071</text>
<line x1="56" y1="134.0" x2="888" y2="134.0" stroke="#2a3140" stroke-dasharray="4 4"/>
<text x="48" y="134.0" fill="#8b95a8" font-size="11" text-anchor="end" dominant-baseline="middle" font-family="ui-sans-serif,system-ui,sans-serif">0.142</text>
<line x1="56" y1="85.0" x2="888" y2="85.0" stroke="#2a3140" stroke-dasharray="4 4"/>
<text x="48" y="85.0" fill="#8b95a8" font-size="11" text-anchor="end" dominant-baseline="middle" font-family="ui-sans-serif,system-ui,sans-serif">0.213</text>
<line x1="56" y1="36.0" x2="888" y2="36.0" stroke="#2a3140" stroke-dasharray="4 4"/>
<text x="48" y="36.0" fill="#8b95a8" font-size="11" text-anchor="end" dominant-baseline="middle" font-family="ui-sans-serif,system-ui,sans-serif">0.284</text>
<rect x="77.5" y="116.6" width="16.2" height="115.4" fill="#38bdf8" opacity="0.9"><title>floor agent (MiMo) · h1: 0.167</title></rect>
<rect x="96.1" y="118.4" width="16.2" height="113.6" fill="#ffb000" opacity="0.9"><title>floor agent (MiMo) - no memory · h1: 0.165</title></rect>
<rect x="114.7" y="136.4" width="16.2" height="95.6" fill="#facc15" opacity="0.9"><title>ex-ante agent · h1: 0.139</title></rect>
<rect x="133.3" y="144.4" width="16.2" height="87.6" fill="#818cf8" opacity="0.9"><title>trading agent · h1: 0.127</title></rect>
<rect x="151.9" y="165.3" width="16.2" height="66.7" fill="#c084fc" opacity="0.9"><title>floor agent (MiniMax) · h1: 0.097</title></rect>
<rect x="170.5" y="168.9" width="16.2" height="63.1" fill="#fb7185" opacity="0.9"><title>floor agent (Grok 4.3) · h1: 0.091</title></rect>
<rect x="189.1" y="178.8" width="16.2" height="53.2" fill="#f97316" opacity="0.9"><title>openclaw agent · h1: 0.077</title></rect>
<rect x="207.7" y="192.0" width="16.2" height="40.0" fill="#4ade80" opacity="0.9"><title>floor agent (GLM) · h1: 0.058</title></rect>
<rect x="226.3" y="192.3" width="16.2" height="39.7" fill="#2dd4bf" opacity="0.9"><title>floor agent (Grok 4.5) · h1: 0.058</title></rect>
<text x="160.0" y="272" fill="#8b95a8" font-size="10" text-anchor="middle" font-family="ui-sans-serif,system-ui,sans-serif" transform="rotate(-28 160.0,272)">h1</text>
<rect x="285.5" y="132.0" width="16.2" height="100.0" fill="#38bdf8" opacity="0.9"><title>floor agent (MiMo) · h2: 0.145</title></rect>
<rect x="304.1" y="138.2" width="16.2" height="93.8" fill="#ffb000" opacity="0.9"><title>floor agent (MiMo) - no memory · h2: 0.136</title></rect>
<rect x="322.7" y="164.8" width="16.2" height="67.2" fill="#facc15" opacity="0.9"><title>ex-ante agent · h2: 0.098</title></rect>
<rect x="341.3" y="139.1" width="16.2" height="92.9" fill="#818cf8" opacity="0.9"><title>trading agent · h2: 0.135</title></rect>
<rect x="359.9" y="166.4" width="16.2" height="65.6" fill="#c084fc" opacity="0.9"><title>floor agent (MiniMax) · h2: 0.095</title></rect>
<rect x="378.5" y="184.6" width="16.2" height="47.4" fill="#fb7185" opacity="0.9"><title>floor agent (Grok 4.3) · h2: 0.069</title></rect>
<rect x="397.1" y="151.5" width="16.2" height="80.5" fill="#f97316" opacity="0.9"><title>openclaw agent · h2: 0.117</title></rect>
<rect x="415.7" y="196.4" width="16.2" height="35.6" fill="#4ade80" opacity="0.9"><title>floor agent (GLM) · h2: 0.052</title></rect>
<rect x="434.3" y="211.9" width="16.2" height="20.1" fill="#2dd4bf" opacity="0.9"><title>floor agent (Grok 4.5) · h2: 0.029</title></rect>
<text x="368.0" y="272" fill="#8b95a8" font-size="10" text-anchor="middle" font-family="ui-sans-serif,system-ui,sans-serif" transform="rotate(-28 368.0,272)">h2</text>
<rect x="493.5" y="96.5" width="16.2" height="135.5" fill="#38bdf8" opacity="0.9"><title>floor agent (MiMo) · h3: 0.197</title></rect>
<rect x="512.1" y="98.4" width="16.2" height="133.6" fill="#ffb000" opacity="0.9"><title>floor agent (MiMo) - no memory · h3: 0.194</title></rect>
<rect x="530.7" y="141.3" width="16.2" height="90.7" fill="#facc15" opacity="0.9"><title>ex-ante agent · h3: 0.132</title></rect>
<rect x="549.3" y="114.5" width="16.2" height="117.5" fill="#818cf8" opacity="0.9"><title>trading agent · h3: 0.170</title></rect>
<rect x="567.9" y="134.6" width="16.2" height="97.4" fill="#c084fc" opacity="0.9"><title>floor agent (MiniMax) · h3: 0.141</title></rect>
<rect x="586.5" y="162.0" width="16.2" height="70.0" fill="#fb7185" opacity="0.9"><title>floor agent (Grok 4.3) · h3: 0.102</title></rect>
<rect x="605.1" y="129.2" width="16.2" height="102.8" fill="#f97316" opacity="0.9"><title>openclaw agent · h3: 0.149</title></rect>
<rect x="623.7" y="166.4" width="16.2" height="65.6" fill="#4ade80" opacity="0.9"><title>floor agent (GLM) · h3: 0.095</title></rect>
<rect x="642.3" y="194.8" width="16.2" height="37.2" fill="#2dd4bf" opacity="0.9"><title>floor agent (Grok 4.5) · h3: 0.054</title></rect>
<text x="576.0" y="272" fill="#8b95a8" font-size="10" text-anchor="middle" font-family="ui-sans-serif,system-ui,sans-serif" transform="rotate(-28 576.0,272)">h3</text>
<rect x="701.5" y="57.0" width="16.2" height="175.0" fill="#38bdf8" opacity="0.9"><title>floor agent (MiMo) · h4: 0.254</title></rect>
<rect x="720.1" y="66.7" width="16.2" height="165.3" fill="#ffb000" opacity="0.9"><title>floor agent (MiMo) - no memory · h4: 0.240</title></rect>
<rect x="738.7" y="146.9" width="16.2" height="85.1" fill="#facc15" opacity="0.9"><title>ex-ante agent · h4: 0.123</title></rect>
<rect x="757.3" y="132.8" width="16.2" height="99.2" fill="#818cf8" opacity="0.9"><title>trading agent · h4: 0.144</title></rect>
<rect x="775.9" y="112.2" width="16.2" height="119.8" fill="#c084fc" opacity="0.9"><title>floor agent (MiniMax) · h4: 0.174</title></rect>
<rect x="794.5" y="143.7" width="16.2" height="88.3" fill="#fb7185" opacity="0.9"><title>floor agent (Grok 4.3) · h4: 0.128</title></rect>
<rect x="813.1" y="141.4" width="16.2" height="90.6" fill="#f97316" opacity="0.9"><title>openclaw agent · h4: 0.131</title></rect>
<rect x="831.7" y="145.5" width="16.2" height="86.5" fill="#4ade80" opacity="0.9"><title>floor agent (GLM) · h4: 0.126</title></rect>
<rect x="850.3" y="182.0" width="16.2" height="50.0" fill="#2dd4bf" opacity="0.9"><title>floor agent (Grok 4.5) · h4: 0.072</title></rect>
<text x="784.0" y="272" fill="#8b95a8" font-size="10" text-anchor="middle" font-family="ui-sans-serif,system-ui,sans-serif" transform="rotate(-28 784.0,272)">h4</text>
<text x="14" y="134.0" fill="#8b95a8" font-size="11" text-anchor="middle" transform="rotate(-90 14,134.0)" font-family="ui-sans-serif,system-ui,sans-serif">residual mean IC</text>
<rect x="56" y="298" width="10" height="10" fill="#38bdf8"/>
<text x="70" y="306" fill="#c8ceda" font-size="10" font-family="ui-sans-serif,system-ui,sans-serif">floor agent (MiMo)</text>
<rect x="230" y="298" width="10" height="10" fill="#ffb000"/>
<text x="244" y="306" fill="#c8ceda" font-size="10" font-family="ui-sans-serif,system-ui,sans-serif">floor agent (MiMo) - no memory</text>
<rect x="420" y="298" width="10" height="10" fill="#facc15"/>
<text x="434" y="306" fill="#c8ceda" font-size="10" font-family="ui-sans-serif,system-ui,sans-serif">ex-ante agent</text>
<rect x="554" y="298" width="10" height="10" fill="#818cf8"/>
<text x="568" y="306" fill="#c8ceda" font-size="10" font-family="ui-sans-serif,system-ui,sans-serif">trading agent</text>
<rect x="688" y="298" width="10" height="10" fill="#c084fc"/>
<text x="702" y="306" fill="#c8ceda" font-size="10" font-family="ui-sans-serif,system-ui,sans-serif">floor agent (MiniMax)</text>
<rect x="878" y="298" width="10" height="10" fill="#fb7185"/>
<text x="892" y="306" fill="#c8ceda" font-size="10" font-family="ui-sans-serif,system-ui,sans-serif">floor agent (Grok 4.3)</text>
<rect x="1068" y="298" width="10" height="10" fill="#f97316"/>
<text x="1082" y="306" fill="#c8ceda" font-size="10" font-family="ui-sans-serif,system-ui,sans-serif">openclaw agent</text>
<rect x="1210" y="298" width="10" height="10" fill="#4ade80"/>
<text x="1224" y="306" fill="#c8ceda" font-size="10" font-family="ui-sans-serif,system-ui,sans-serif">floor agent (GLM)</text>
<rect x="1376" y="298" width="10" height="10" fill="#2dd4bf"/>
<text x="1390" y="306" fill="#c8ceda" font-size="10" font-family="ui-sans-serif,system-ui,sans-serif">floor agent (Grok 4.5)</text>
</svg>
