<svg xmlns="http://www.w3.org/2000/svg" viewBox="0 0 912 320" role="img" aria-label="Residual NW t by horizon (headline KPI)">
<rect width="912" height="320" fill="#0f1117"/>
<text x="56" y="22" fill="#e6eaf2" font-size="14" font-family="ui-sans-serif,system-ui,sans-serif" font-weight="600">Residual NW t by horizon (headline KPI)</text>
<line x1="56" y1="232.0" x2="888" y2="232.0" stroke="#2a3140" stroke-dasharray="4 4"/>
<text x="48" y="232.0" fill="#8b95a8" font-size="11" text-anchor="end" dominant-baseline="middle" font-family="ui-sans-serif,system-ui,sans-serif">0.00</text>
<line x1="56" y1="183.0" x2="888" y2="183.0" stroke="#2a3140" stroke-dasharray="4 4"/>
<text x="48" y="183.0" fill="#8b95a8" font-size="11" text-anchor="end" dominant-baseline="middle" font-family="ui-sans-serif,system-ui,sans-serif">1.88</text>
<line x1="56" y1="134.0" x2="888" y2="134.0" stroke="#2a3140" stroke-dasharray="4 4"/>
<text x="48" y="134.0" fill="#8b95a8" font-size="11" text-anchor="end" dominant-baseline="middle" font-family="ui-sans-serif,system-ui,sans-serif">3.75</text>
<line x1="56" y1="85.0" x2="888" y2="85.0" stroke="#2a3140" stroke-dasharray="4 4"/>
<text x="48" y="85.0" fill="#8b95a8" font-size="11" text-anchor="end" dominant-baseline="middle" font-family="ui-sans-serif,system-ui,sans-serif">5.63</text>
<line x1="56" y1="36.0" x2="888" y2="36.0" stroke="#2a3140" stroke-dasharray="4 4"/>
<text x="48" y="36.0" fill="#8b95a8" font-size="11" text-anchor="end" dominant-baseline="middle" font-family="ui-sans-serif,system-ui,sans-serif">7.50</text>
<line x1="56" y1="180.8" x2="888" y2="180.8" stroke="#8b95a8" stroke-dasharray="5 3" opacity="0.85"/>
<text x="888" y="176.8" fill="#8b95a8" font-size="10" text-anchor="end" font-family="ui-sans-serif,system-ui,sans-serif">1.96 · 95%</text>
<line x1="56" y1="153.6" x2="888" y2="153.6" stroke="#8b95a8" stroke-dasharray="2 4" opacity="0.85"/>
<text x="888" y="149.6" fill="#8b95a8" font-size="10" text-anchor="end" font-family="ui-sans-serif,system-ui,sans-serif">3.0 · credible</text>
<rect x="77.5" y="147.3" width="16.2" height="84.7" fill="#facc15" opacity="0.9"><title>ex-ante agent · h1: 3.24</title></rect>
<rect x="96.1" y="162.4" width="16.2" height="69.6" fill="#38bdf8" opacity="0.9"><title>floor agent (MiMo) · h1: 2.67</title></rect>
<rect x="114.7" y="163.5" width="16.2" height="68.5" fill="#ffb000" opacity="0.9"><title>floor agent (MiMo) - no memory · h1: 2.62</title></rect>
<rect x="133.3" y="175.8" width="16.2" height="56.2" fill="#c084fc" opacity="0.9"><title>floor agent (MiniMax) · h1: 2.15</title></rect>
<rect x="151.9" y="177.0" width="16.2" height="55.0" fill="#818cf8" opacity="0.9"><title>trading agent · h1: 2.10</title></rect>
<rect x="170.5" y="187.5" width="16.2" height="44.5" fill="#fb7185" opacity="0.9"><title>floor agent (Grok 4.3) · h1: 1.70</title></rect>
<rect x="189.1" y="196.7" width="16.2" height="35.3" fill="#f97316" opacity="0.9"><title>openclaw agent · h1: 1.35</title></rect>
<rect x="207.7" y="199.7" width="16.2" height="32.3" fill="#2dd4bf" opacity="0.9"><title>floor agent (Grok 4.5) · h1: 1.24</title></rect>
<rect x="226.3" y="200.4" width="16.2" height="31.6" fill="#4ade80" opacity="0.9"><title>floor agent (GLM) · h1: 1.21</title></rect>
<text x="160.0" y="272" fill="#8b95a8" font-size="10" text-anchor="middle" font-family="ui-sans-serif,system-ui,sans-serif" transform="rotate(-28 160.0,272)">h1</text>
<rect x="285.5" y="160.9" width="16.2" height="71.1" fill="#facc15" opacity="0.9"><title>ex-ante agent · h2: 2.72</title></rect>
<rect x="304.1" y="143.1" width="16.2" height="88.9" fill="#38bdf8" opacity="0.9"><title>floor agent (MiMo) · h2: 3.41</title></rect>
<rect x="322.7" y="156.4" width="16.2" height="75.6" fill="#ffb000" opacity="0.9"><title>floor agent (MiMo) - no memory · h2: 2.89</title></rect>
<rect x="341.3" y="105.7" width="16.2" height="126.3" fill="#c084fc" opacity="0.9"><title>floor agent (MiniMax) · h2: 4.84</title></rect>
<rect x="359.9" y="125.8" width="16.2" height="106.2" fill="#818cf8" opacity="0.9"><title>trading agent · h2: 4.07</title></rect>
<rect x="378.5" y="170.5" width="16.2" height="61.5" fill="#fb7185" opacity="0.9"><title>floor agent (Grok 4.3) · h2: 2.35</title></rect>
<rect x="397.1" y="146.1" width="16.2" height="85.9" fill="#f97316" opacity="0.9"><title>openclaw agent · h2: 3.29</title></rect>
<rect x="415.7" y="208.6" width="16.2" height="23.4" fill="#2dd4bf" opacity="0.9"><title>floor agent (Grok 4.5) · h2: 0.90</title></rect>
<rect x="434.3" y="193.1" width="16.2" height="38.9" fill="#4ade80" opacity="0.9"><title>floor agent (GLM) · h2: 1.49</title></rect>
<text x="368.0" y="272" fill="#8b95a8" font-size="10" text-anchor="middle" font-family="ui-sans-serif,system-ui,sans-serif" transform="rotate(-28 368.0,272)">h2</text>
<rect x="493.5" y="146.9" width="16.2" height="85.1" fill="#facc15" opacity="0.9"><title>ex-ante agent · h3: 3.26</title></rect>
<rect x="512.1" y="130.3" width="16.2" height="101.7" fill="#38bdf8" opacity="0.9"><title>floor agent (MiMo) · h3: 3.89</title></rect>
<rect x="530.7" y="141.5" width="16.2" height="90.5" fill="#ffb000" opacity="0.9"><title>floor agent (MiMo) - no memory · h3: 3.47</title></rect>
<rect x="549.3" y="90.2" width="16.2" height="141.8" fill="#c084fc" opacity="0.9"><title>floor agent (MiniMax) · h3: 5.43</title></rect>
<rect x="567.9" y="72.4" width="16.2" height="159.6" fill="#818cf8" opacity="0.9"><title>trading agent · h3: 6.11</title></rect>
<rect x="586.5" y="157.1" width="16.2" height="74.9" fill="#fb7185" opacity="0.9"><title>floor agent (Grok 4.3) · h3: 2.87</title></rect>
<rect x="605.1" y="152.1" width="16.2" height="79.9" fill="#f97316" opacity="0.9"><title>openclaw agent · h3: 3.06</title></rect>
<rect x="623.7" y="190.4" width="16.2" height="41.6" fill="#2dd4bf" opacity="0.9"><title>floor agent (Grok 4.5) · h3: 1.59</title></rect>
<rect x="642.3" y="167.3" width="16.2" height="64.7" fill="#4ade80" opacity="0.9"><title>floor agent (GLM) · h3: 2.48</title></rect>
<text x="576.0" y="272" fill="#8b95a8" font-size="10" text-anchor="middle" font-family="ui-sans-serif,system-ui,sans-serif" transform="rotate(-28 576.0,272)">h3</text>
<rect x="701.5" y="165.9" width="16.2" height="66.1" fill="#facc15" opacity="0.9"><title>ex-ante agent · h4: 2.53</title></rect>
<rect x="720.1" y="104.6" width="16.2" height="127.4" fill="#38bdf8" opacity="0.9"><title>floor agent (MiMo) · h4: 4.88</title></rect>
<rect x="738.7" y="131.0" width="16.2" height="101.0" fill="#ffb000" opacity="0.9"><title>floor agent (MiMo) - no memory · h4: 3.87</title></rect>
<rect x="757.3" y="57.0" width="16.2" height="175.0" fill="#c084fc" opacity="0.9"><title>floor agent (MiniMax) · h4: 6.70</title></rect>
<rect x="775.9" y="150.3" width="16.2" height="81.7" fill="#818cf8" opacity="0.9"><title>trading agent · h4: 3.13</title></rect>
<rect x="794.5" y="142.0" width="16.2" height="90.0" fill="#fb7185" opacity="0.9"><title>floor agent (Grok 4.3) · h4: 3.44</title></rect>
<rect x="813.1" y="173.4" width="16.2" height="58.6" fill="#f97316" opacity="0.9"><title>openclaw agent · h4: 2.24</title></rect>
<rect x="831.7" y="175.8" width="16.2" height="56.2" fill="#2dd4bf" opacity="0.9"><title>floor agent (Grok 4.5) · h4: 2.15</title></rect>
<rect x="850.3" y="112.9" width="16.2" height="119.1" fill="#4ade80" opacity="0.9"><title>floor agent (GLM) · h4: 4.56</title></rect>
<text x="784.0" y="272" fill="#8b95a8" font-size="10" text-anchor="middle" font-family="ui-sans-serif,system-ui,sans-serif" transform="rotate(-28 784.0,272)">h4</text>
<text x="14" y="134.0" fill="#8b95a8" font-size="11" text-anchor="middle" transform="rotate(-90 14,134.0)" font-family="ui-sans-serif,system-ui,sans-serif">NW t</text>
<rect x="56" y="298" width="10" height="10" fill="#facc15"/>
<text x="70" y="306" fill="#c8ceda" font-size="10" font-family="ui-sans-serif,system-ui,sans-serif">ex-ante agent</text>
<rect x="190" y="298" width="10" height="10" fill="#38bdf8"/>
<text x="204" y="306" fill="#c8ceda" font-size="10" font-family="ui-sans-serif,system-ui,sans-serif">floor agent (MiMo)</text>
<rect x="364" y="298" width="10" height="10" fill="#ffb000"/>
<text x="378" y="306" fill="#c8ceda" font-size="10" font-family="ui-sans-serif,system-ui,sans-serif">floor agent (MiMo) - no memory</text>
<rect x="554" y="298" width="10" height="10" fill="#c084fc"/>
<text x="568" y="306" fill="#c8ceda" font-size="10" font-family="ui-sans-serif,system-ui,sans-serif">floor agent (MiniMax)</text>
<rect x="744" y="298" width="10" height="10" fill="#818cf8"/>
<text x="758" y="306" fill="#c8ceda" font-size="10" font-family="ui-sans-serif,system-ui,sans-serif">trading agent</text>
<rect x="878" y="298" width="10" height="10" fill="#fb7185"/>
<text x="892" y="306" fill="#c8ceda" font-size="10" font-family="ui-sans-serif,system-ui,sans-serif">floor agent (Grok 4.3)</text>
<rect x="1068" y="298" width="10" height="10" fill="#f97316"/>
<text x="1082" y="306" fill="#c8ceda" font-size="10" font-family="ui-sans-serif,system-ui,sans-serif">openclaw agent</text>
<rect x="1210" y="298" width="10" height="10" fill="#2dd4bf"/>
<text x="1224" y="306" fill="#c8ceda" font-size="10" font-family="ui-sans-serif,system-ui,sans-serif">floor agent (Grok 4.5)</text>
<rect x="1400" y="298" width="10" height="10" fill="#4ade80"/>
<text x="1414" y="306" fill="#c8ceda" font-size="10" font-family="ui-sans-serif,system-ui,sans-serif">floor agent (GLM)</text>
</svg>
