<svg xmlns="http://www.w3.org/2000/svg" viewBox="0 0 910 320" role="img" aria-label="Ensemble vs single-run IC (h1)">
<rect width="910" height="320" fill="#0f1117"/>
<text x="56" y="22" fill="#e6eaf2" font-size="14" font-family="ui-sans-serif,system-ui,sans-serif" font-weight="600">Ensemble vs single-run IC (h1)</text>
<line x1="56" y1="232.0" x2="886" y2="232.0" stroke="#2a3140" stroke-dasharray="4 4"/>
<text x="48" y="232.0" fill="#8b95a8" font-size="11" text-anchor="end" dominant-baseline="middle" font-family="ui-sans-serif,system-ui,sans-serif">0.000</text>
<line x1="56" y1="183.0" x2="886" y2="183.0" stroke="#2a3140" stroke-dasharray="4 4"/>
<text x="48" y="183.0" fill="#8b95a8" font-size="11" text-anchor="end" dominant-baseline="middle" font-family="ui-sans-serif,system-ui,sans-serif">0.053</text>
<line x1="56" y1="134.0" x2="886" y2="134.0" stroke="#2a3140" stroke-dasharray="4 4"/>
<text x="48" y="134.0" fill="#8b95a8" font-size="11" text-anchor="end" dominant-baseline="middle" font-family="ui-sans-serif,system-ui,sans-serif">0.105</text>
<line x1="56" y1="85.0" x2="886" y2="85.0" stroke="#2a3140" stroke-dasharray="4 4"/>
<text x="48" y="85.0" fill="#8b95a8" font-size="11" text-anchor="end" dominant-baseline="middle" font-family="ui-sans-serif,system-ui,sans-serif">0.158</text>
<line x1="56" y1="36.0" x2="886" y2="36.0" stroke="#2a3140" stroke-dasharray="4 4"/>
<text x="48" y="36.0" fill="#8b95a8" font-size="11" text-anchor="end" dominant-baseline="middle" font-family="ui-sans-serif,system-ui,sans-serif">0.211</text>
<circle cx="102.1" cy="64.7" r="4" fill="#38bdf8" opacity="0.55"/>
<circle cx="102.1" cy="57.0" r="4" fill="#38bdf8" opacity="0.55"/>
<circle cx="102.1" cy="80.1" r="4" fill="#38bdf8" opacity="0.55"/>
<polygon points="102.1,51.3 108.1,62.3 96.1,62.3" fill="#38bdf8"/>
<text x="102.1" y="272" fill="#8b95a8" font-size="10" text-anchor="middle" font-family="ui-sans-serif,system-ui,sans-serif" transform="rotate(-28 102.1,272)">floor agent (M…</text>
<circle cx="194.3" cy="66.8" r="4" fill="#ffb000" opacity="0.55"/>
<circle cx="194.3" cy="73.4" r="4" fill="#ffb000" opacity="0.55"/>
<circle cx="194.3" cy="73.7" r="4" fill="#ffb000" opacity="0.55"/>
<polygon points="194.3,57.4 200.3,68.4 188.3,68.4" fill="#ffb000"/>
<text x="194.3" y="272" fill="#8b95a8" font-size="10" text-anchor="middle" font-family="ui-sans-serif,system-ui,sans-serif" transform="rotate(-28 194.3,272)">floor agent (M…</text>
<circle cx="286.6" cy="84.3" r="4" fill="#818cf8" opacity="0.55"/>
<circle cx="286.6" cy="102.7" r="4" fill="#818cf8" opacity="0.55"/>
<circle cx="286.6" cy="88.5" r="4" fill="#818cf8" opacity="0.55"/>
<polygon points="286.6,65.0 292.6,76.0 280.6,76.0" fill="#818cf8"/>
<text x="286.6" y="272" fill="#8b95a8" font-size="10" text-anchor="middle" font-family="ui-sans-serif,system-ui,sans-serif" transform="rotate(-28 286.6,272)">trading agent</text>
<circle cx="378.8" cy="103.8" r="4" fill="#c084fc" opacity="0.55"/>
<circle cx="378.8" cy="76.9" r="4" fill="#c084fc" opacity="0.55"/>
<circle cx="378.8" cy="116.1" r="4" fill="#c084fc" opacity="0.55"/>
<polygon points="378.8,80.7 384.8,91.7 372.8,91.7" fill="#c084fc"/>
<text x="378.8" y="272" fill="#8b95a8" font-size="10" text-anchor="middle" font-family="ui-sans-serif,system-ui,sans-serif" transform="rotate(-28 378.8,272)">floor agent (M…</text>
<circle cx="471.0" cy="148.3" r="4" fill="#f97316" opacity="0.55"/>
<circle cx="471.0" cy="114.5" r="4" fill="#f97316" opacity="0.55"/>
<circle cx="471.0" cy="145.0" r="4" fill="#f97316" opacity="0.55"/>
<polygon points="471.0,113.7 477.0,124.7 465.0,124.7" fill="#f97316"/>
<text x="471.0" y="272" fill="#8b95a8" font-size="10" text-anchor="middle" font-family="ui-sans-serif,system-ui,sans-serif" transform="rotate(-28 471.0,272)">openclaw agent</text>
<circle cx="563.2" cy="127.4" r="4" fill="#facc15" opacity="0.55"/>
<circle cx="563.2" cy="142.2" r="4" fill="#facc15" opacity="0.55"/>
<circle cx="563.2" cy="146.6" r="4" fill="#facc15" opacity="0.55"/>
<polygon points="563.2,120.1 569.2,131.1 557.2,131.1" fill="#facc15"/>
<text x="563.2" y="272" fill="#8b95a8" font-size="10" text-anchor="middle" font-family="ui-sans-serif,system-ui,sans-serif" transform="rotate(-28 563.2,272)">ex-ante agent</text>
<circle cx="655.4" cy="145.8" r="4" fill="#fb7185" opacity="0.55"/>
<circle cx="655.4" cy="148.8" r="4" fill="#fb7185" opacity="0.55"/>
<circle cx="655.4" cy="145.4" r="4" fill="#fb7185" opacity="0.55"/>
<polygon points="655.4,135.5 661.4,146.5 649.4,146.5" fill="#fb7185"/>
<text x="655.4" y="272" fill="#8b95a8" font-size="10" text-anchor="middle" font-family="ui-sans-serif,system-ui,sans-serif" transform="rotate(-28 655.4,272)">floor agent (G…</text>
<circle cx="747.7" cy="138.8" r="4" fill="#2dd4bf" opacity="0.55"/>
<circle cx="747.7" cy="133.6" r="4" fill="#2dd4bf" opacity="0.55"/>
<circle cx="747.7" cy="173.6" r="4" fill="#2dd4bf" opacity="0.55"/>
<polygon points="747.7,136.3 753.7,147.3 741.7,147.3" fill="#2dd4bf"/>
<text x="747.7" y="272" fill="#8b95a8" font-size="10" text-anchor="middle" font-family="ui-sans-serif,system-ui,sans-serif" transform="rotate(-28 747.7,272)">floor agent (G…</text>
<circle cx="839.9" cy="156.0" r="4" fill="#4ade80" opacity="0.55"/>
<circle cx="839.9" cy="137.8" r="4" fill="#4ade80" opacity="0.55"/>
<circle cx="839.9" cy="173.8" r="4" fill="#4ade80" opacity="0.55"/>
<polygon points="839.9,143.7 845.9,154.7 833.9,154.7" fill="#4ade80"/>
<text x="839.9" y="272" fill="#8b95a8" font-size="10" text-anchor="middle" font-family="ui-sans-serif,system-ui,sans-serif" transform="rotate(-28 839.9,272)">floor agent (G…</text>
<text x="56" y="308" fill="#8b95a8" font-size="10" font-family="ui-sans-serif,system-ui,sans-serif">dots = per-run IC · ◆ = ensemble mean IC (h1)</text>
</svg>
