<svg xmlns="http://www.w3.org/2000/svg" viewBox="0 0 920 328" role="img" aria-label="Sophistication distribution">
<rect width="920" height="328" fill="#0f1117"/>
<text x="268" y="24" fill="#e6eaf2" font-size="14" font-family="ui-sans-serif,system-ui,sans-serif" font-weight="600">Sophistication level distribution (L0–L4)</text>
<line x1="268.0" y1="40" x2="268.0" y2="292" stroke="#2a3140" stroke-dasharray="4 4"/>
<text x="268.0" y="306" fill="#8b95a8" font-size="10" text-anchor="middle" font-family="ui-sans-serif,system-ui,sans-serif">0%</text>
<line x1="425.0" y1="40" x2="425.0" y2="292" stroke="#2a3140" stroke-dasharray="4 4"/>
<text x="425.0" y="306" fill="#8b95a8" font-size="10" text-anchor="middle" font-family="ui-sans-serif,system-ui,sans-serif">25%</text>
<line x1="582.0" y1="40" x2="582.0" y2="292" stroke="#2a3140" stroke-dasharray="4 4"/>
<text x="582.0" y="306" fill="#8b95a8" font-size="10" text-anchor="middle" font-family="ui-sans-serif,system-ui,sans-serif">50%</text>
<line x1="739.0" y1="40" x2="739.0" y2="292" stroke="#2a3140" stroke-dasharray="4 4"/>
<text x="739.0" y="306" fill="#8b95a8" font-size="10" text-anchor="middle" font-family="ui-sans-serif,system-ui,sans-serif">75%</text>
<line x1="896.0" y1="40" x2="896.0" y2="292" stroke="#2a3140" stroke-dasharray="4 4"/>
<text x="896.0" y="306" fill="#8b95a8" font-size="10" text-anchor="middle" font-family="ui-sans-serif,system-ui,sans-serif">100%</text>
<rect x="268.0" y="47.0" width="333.6" height="14" fill="#6e6e8e" opacity="0.92"/>
<rect x="601.6" y="47.0" width="133.4" height="14" fill="#d97742" opacity="0.92"/>
<rect x="735.0" y="47.0" width="160.9" height="14" fill="#f5b042" opacity="0.92"/>
<text x="258" y="54.0" fill="#c8ceda" font-size="12" text-anchor="end" dominant-baseline="middle" font-family="ui-sans-serif,system-ui,sans-serif">trading agent</text>
<rect x="268.0" y="75.0" width="1.3" height="14" fill="#2a1650" opacity="0.92"/>
<rect x="269.3" y="75.0" width="1.3" height="14" fill="#5b2a6b" opacity="0.92"/>
<rect x="270.6" y="75.0" width="518.1" height="14" fill="#6e6e8e" opacity="0.92"/>
<rect x="788.7" y="75.0" width="62.8" height="14" fill="#d97742" opacity="0.92"/>
<rect x="851.5" y="75.0" width="44.5" height="14" fill="#f5b042" opacity="0.92"/>
<text x="258" y="82.0" fill="#c8ceda" font-size="12" text-anchor="end" dominant-baseline="middle" font-family="ui-sans-serif,system-ui,sans-serif">ex-ante agent</text>
<rect x="268.0" y="103.0" width="2.6" height="14" fill="#2a1650" opacity="0.92"/>
<rect x="270.6" y="103.0" width="10.5" height="14" fill="#5b2a6b" opacity="0.92"/>
<rect x="281.1" y="103.0" width="537.7" height="14" fill="#6e6e8e" opacity="0.92"/>
<rect x="818.8" y="103.0" width="45.8" height="14" fill="#d97742" opacity="0.92"/>
<rect x="864.6" y="103.0" width="31.4" height="14" fill="#f5b042" opacity="0.92"/>
<text x="258" y="110.0" fill="#c8ceda" font-size="12" text-anchor="end" dominant-baseline="middle" font-family="ui-sans-serif,system-ui,sans-serif">openclaw agent</text>
<rect x="268.0" y="131.0" width="1.3" height="14" fill="#5b2a6b" opacity="0.92"/>
<rect x="269.3" y="131.0" width="592.6" height="14" fill="#6e6e8e" opacity="0.92"/>
<rect x="862.0" y="131.0" width="28.8" height="14" fill="#d97742" opacity="0.92"/>
<rect x="890.7" y="131.0" width="5.2" height="14" fill="#f5b042" opacity="0.92"/>
<text x="258" y="138.0" fill="#c8ceda" font-size="12" text-anchor="end" dominant-baseline="middle" font-family="ui-sans-serif,system-ui,sans-serif">floor agent (MiniMax)</text>
<rect x="268.0" y="159.0" width="5.2" height="14" fill="#5b2a6b" opacity="0.92"/>
<rect x="273.2" y="159.0" width="588.8" height="14" fill="#6e6e8e" opacity="0.92"/>
<rect x="862.0" y="159.0" width="26.2" height="14" fill="#d97742" opacity="0.92"/>
<rect x="888.1" y="159.0" width="7.9" height="14" fill="#f5b042" opacity="0.92"/>
<text x="258" y="166.0" fill="#c8ceda" font-size="12" text-anchor="end" dominant-baseline="middle" font-family="ui-sans-serif,system-ui,sans-serif">floor agent (GLM)</text>
<rect x="268.0" y="187.0" width="6.5" height="14" fill="#5b2a6b" opacity="0.92"/>
<rect x="274.5" y="187.0" width="597.9" height="14" fill="#6e6e8e" opacity="0.92"/>
<rect x="872.4" y="187.0" width="20.9" height="14" fill="#d97742" opacity="0.92"/>
<rect x="893.4" y="187.0" width="2.6" height="14" fill="#f5b042" opacity="0.92"/>
<text x="258" y="194.0" fill="#c8ceda" font-size="12" text-anchor="end" dominant-baseline="middle" font-family="ui-sans-serif,system-ui,sans-serif">floor agent (Grok 4.5)</text>
<rect x="268.0" y="215.0" width="1.3" height="14" fill="#2a1650" opacity="0.92"/>
<rect x="269.3" y="215.0" width="27.4" height="14" fill="#5b2a6b" opacity="0.92"/>
<rect x="296.8" y="215.0" width="575.7" height="14" fill="#6e6e8e" opacity="0.92"/>
<rect x="872.4" y="215.0" width="22.2" height="14" fill="#d97742" opacity="0.92"/>
<rect x="894.7" y="215.0" width="1.3" height="14" fill="#f5b042" opacity="0.92"/>
<text x="258" y="222.0" fill="#c8ceda" font-size="12" text-anchor="end" dominant-baseline="middle" font-family="ui-sans-serif,system-ui,sans-serif">floor agent (MiMo)</text>
<rect x="268.0" y="243.0" width="2.6" height="14" fill="#2a1650" opacity="0.92"/>
<rect x="270.6" y="243.0" width="23.6" height="14" fill="#5b2a6b" opacity="0.92"/>
<rect x="294.2" y="243.0" width="584.9" height="14" fill="#6e6e8e" opacity="0.92"/>
<rect x="879.0" y="243.0" width="15.7" height="14" fill="#d97742" opacity="0.92"/>
<rect x="894.7" y="243.0" width="1.3" height="14" fill="#f5b042" opacity="0.92"/>
<text x="258" y="250.0" fill="#c8ceda" font-size="12" text-anchor="end" dominant-baseline="middle" font-family="ui-sans-serif,system-ui,sans-serif">floor agent (MiMo) - no memory</text>
<rect x="268.0" y="271.0" width="4.0" height="14" fill="#2a1650" opacity="0.92"/>
<rect x="272.0" y="271.0" width="32.7" height="14" fill="#5b2a6b" opacity="0.92"/>
<rect x="304.7" y="271.0" width="590.1" height="14" fill="#6e6e8e" opacity="0.92"/>
<rect x="894.7" y="271.0" width="1.3" height="14" fill="#d97742" opacity="0.92"/>
<text x="258" y="278.0" fill="#c8ceda" font-size="12" text-anchor="end" dominant-baseline="middle" font-family="ui-sans-serif,system-ui,sans-serif">floor agent (Grok 4.3)</text>
<rect x="268" y="312" width="10" height="10" fill="#2a1650"/>
<text x="282" y="321" fill="#c8ceda" font-size="10" font-family="ui-sans-serif,system-ui,sans-serif">L0</text>
<rect x="316" y="312" width="10" height="10" fill="#5b2a6b"/>
<text x="330" y="321" fill="#c8ceda" font-size="10" font-family="ui-sans-serif,system-ui,sans-serif">L1</text>
<rect x="364" y="312" width="10" height="10" fill="#6e6e8e"/>
<text x="378" y="321" fill="#c8ceda" font-size="10" font-family="ui-sans-serif,system-ui,sans-serif">L2</text>
<rect x="412" y="312" width="10" height="10" fill="#d97742"/>
<text x="426" y="321" fill="#c8ceda" font-size="10" font-family="ui-sans-serif,system-ui,sans-serif">L3</text>
<rect x="460" y="312" width="10" height="10" fill="#f5b042"/>
<text x="474" y="321" fill="#c8ceda" font-size="10" font-family="ui-sans-serif,system-ui,sans-serif">L4</text>
</svg>
